<svg version="1.1" preserveAspectRatio="none" xmlns="http://www.w3.org/2000/svg" width="500" height="500" viewBox="0 0 500 500"><rect width="100%" height="100%" fill="#FFFFFF" fill-opacity="1"/><svg viewBox="115.1534 156.2011 436.3599 296.4821" width="333" height="226.25483986956638" x="83.5px" y="136.8726px" xmlns="http://www.w3.org/2000/svg" xmlns:xlink="http://www.w3.org/1999/xlink" preserveAspectRatio="none"><defs></defs><style>.a-VpF9B9iXcolor {fill:#0C0C0C;fill-opacity:1;}.a-VpF9B9iXstrokeColor-str {stroke:#929292;stroke-opacity:1;}.companyName {fill:#0C0C0C;fill-opacity:1;}.icon3-str {stroke:#929292;stroke-opacity:1;}.text {fill:#0C0C0C;fill-opacity:1;}</style><g opacity="1" transform="rotate(0 115.1534 431.0832)">
<svg width="436.3599" height="21.6" x="115.1534" y="431.0832" version="1.1" preserveAspectRatio="none" viewBox="0.08 -29.88 764.24 37.84">
  <g transform="matrix(1 0 0 1 0 0)" class="text"><path id="id-6izo4zJp35" d="M25.48 0L22.12-7.48L6.52-7.48L3.16 0L0.08 0L12.88-28L15.80-28L28.60 0L25.48 0ZM7.60-9.88L21.04-9.88L14.32-24.92L7.60-9.88Z M41.60-27.48Q39.76-27.48 38.82-26.48Q37.88-25.48 37.88-23.52L37.88-23.52L37.88-21.04L44.36-21.04L44.36-18.64L37.96-18.64L37.96 0L35.12 0L35.12-18.64L31.36-18.64L31.36-21.04L35.12-21.04L35.12-23.64Q35.12-26.52 36.78-28.20Q38.44-29.88 41.48-29.88L41.48-29.88Q42.68-29.88 43.80-29.54Q44.92-29.20 45.68-28.56L45.68-28.56L44.72-26.44Q43.48-27.48 41.60-27.48L41.60-27.48Z M57.16-27.48Q55.32-27.48 54.38-26.48Q53.44-25.48 53.44-23.52L53.44-23.52L53.44-21.04L59.92-21.04L59.92-18.64L53.52-18.64L53.52 0L50.68 0L50.68-18.64L46.92-18.64L46.92-21.04L50.68-21.04L50.68-23.64Q50.68-26.52 52.34-28.20Q54-29.88 57.04-29.88L57.04-29.88Q58.24-29.88 59.36-29.54Q60.48-29.20 61.24-28.56L61.24-28.56L60.28-26.44Q59.04-27.48 57.16-27.48L57.16-27.48Z M74 0.20Q70.96 0.20 68.52-1.18Q66.08-2.56 64.68-5Q63.28-7.44 63.28-10.52L63.28-10.52Q63.28-13.60 64.68-16.04Q66.08-18.48 68.52-19.84Q70.96-21.20 74-21.20L74-21.20Q77.04-21.20 79.48-19.84Q81.92-18.48 83.30-16.04Q84.68-13.60 84.68-10.52L84.68-10.52Q84.68-7.44 83.30-5Q81.92-2.56 79.48-1.18Q77.04 0.20 74 0.20L74 0.20ZM74-2.32Q76.24-2.32 78.02-3.34Q79.80-4.36 80.80-6.24Q81.80-8.12 81.80-10.52L81.80-10.52Q81.80-12.92 80.80-14.80Q79.80-16.68 78.02-17.70Q76.24-18.72 74-18.72L74-18.72Q71.76-18.72 69.98-17.70Q68.20-16.68 67.18-14.80Q66.16-12.92 66.16-10.52L66.16-10.52Q66.16-8.12 67.18-6.24Q68.20-4.36 69.98-3.34Q71.76-2.32 74-2.32L74-2.32Z M95.20-16.92Q96.20-19.04 98.18-20.12Q100.16-21.20 103.08-21.20L103.08-21.20L103.08-18.44L102.40-18.48Q99.08-18.48 97.20-16.44Q95.32-14.40 95.32-10.72L95.32-10.72L95.32 0L92.48 0L92.48-21.04L95.20-21.04L95.20-16.92Z M126.36-29.68L129.20-29.68L129.20 0L126.48 0L126.48-4.16Q125.20-2.04 123.10-0.92Q121 0.20 118.36 0.20L118.36 0.20Q115.40 0.20 113-1.16Q110.60-2.52 109.24-4.96Q107.88-7.40 107.88-10.52L107.88-10.52Q107.88-13.64 109.24-16.08Q110.60-18.52 113-19.86Q115.40-21.20 118.36-21.20L118.36-21.20Q120.92-21.20 122.98-20.14Q125.04-19.08 126.36-17.04L126.36-17.04L126.36-29.68ZM118.60-2.32Q120.80-2.32 122.58-3.34Q124.36-4.36 125.38-6.24Q126.40-8.12 126.40-10.52L126.40-10.52Q126.40-12.92 125.38-14.80Q124.36-16.68 122.58-17.70Q120.80-18.72 118.60-18.72L118.60-18.72Q116.36-18.72 114.58-17.70Q112.80-16.68 111.78-14.80Q110.76-12.92 110.76-10.52L110.76-10.52Q110.76-8.12 111.78-6.24Q112.80-4.36 114.58-3.34Q116.36-2.32 118.60-2.32L118.60-2.32Z M146.48-21.20Q150.60-21.20 152.80-19.14Q155-17.08 155-13.04L155-13.04L155 0L152.28 0L152.28-3.28Q151.32-1.64 149.46-0.72Q147.60 0.20 145.04 0.20L145.04 0.20Q141.52 0.20 139.44-1.48Q137.36-3.16 137.36-5.92L137.36-5.92Q137.36-8.60 139.30-10.24Q141.24-11.88 145.48-11.88L145.48-11.88L152.16-11.88L152.16-13.16Q152.16-15.88 150.64-17.30Q149.12-18.72 146.20-18.72L146.20-18.72Q144.20-18.72 142.36-18.06Q140.52-17.40 139.20-16.24L139.20-16.24L137.92-18.36Q139.52-19.72 141.76-20.46Q144-21.20 146.48-21.20L146.48-21.20ZM145.48-2.04Q147.88-2.04 149.60-3.14Q151.32-4.24 152.16-6.32L152.16-6.32L152.16-9.76L145.56-9.76Q140.16-9.76 140.16-6L140.16-6Q140.16-4.16 141.56-3.10Q142.96-2.04 145.48-2.04L145.48-2.04Z M175.56-21.20Q178.52-21.20 180.92-19.86Q183.32-18.52 184.68-16.08Q186.04-13.64 186.04-10.52L186.04-10.52Q186.04-7.40 184.68-4.96Q183.32-2.52 180.92-1.16Q178.52 0.20 175.56 0.20L175.56 0.20Q172.92 0.20 170.82-0.92Q168.72-2.04 167.44-4.16L167.44-4.16L167.44 0L164.72 0L164.72-29.68L167.56-29.68L167.56-17.04Q168.88-19.08 170.94-20.14Q173-21.20 175.56-21.20L175.56-21.20ZM175.36-2.32Q177.56-2.32 179.36-3.34Q181.16-4.36 182.18-6.24Q183.20-8.12 183.20-10.52L183.20-10.52Q183.20-12.92 182.18-14.80Q181.16-16.68 179.36-17.70Q177.56-18.72 175.36-18.72L175.36-18.72Q173.12-18.72 171.34-17.70Q169.56-16.68 168.54-14.80Q167.52-12.92 167.52-10.52L167.52-10.52Q167.52-8.12 168.54-6.24Q169.56-4.36 171.34-3.34Q173.12-2.32 175.36-2.32L175.36-2.32Z M193.84 0L193.84-29.68L196.68-29.68L196.68 0L193.84 0Z M224.96-10.52L224.92-9.64L207.32-9.64Q207.56-6.36 209.84-4.34Q212.12-2.32 215.60-2.32L215.60-2.32Q217.56-2.32 219.20-3.02Q220.84-3.72 222.04-5.08L222.04-5.08L223.64-3.24Q222.24-1.56 220.14-0.68Q218.04 0.20 215.52 0.20L215.52 0.20Q212.28 0.20 209.78-1.18Q207.28-2.56 205.88-5Q204.48-7.44 204.48-10.52L204.48-10.52Q204.48-13.60 205.82-16.04Q207.16-18.48 209.50-19.84Q211.84-21.20 214.76-21.20L214.76-21.20Q217.68-21.20 220-19.84Q222.32-18.48 223.64-16.06Q224.96-13.64 224.96-10.52L224.96-10.52ZM214.76-18.76Q211.72-18.76 209.66-16.82Q207.60-14.88 207.32-11.76L207.32-11.76L222.24-11.76Q221.96-14.88 219.90-16.82Q217.84-18.76 214.76-18.76L214.76-18.76Z M248.80-2.56L265.64-2.56L265.64 0L245.84 0L245.84-28L265.04-28L265.04-25.44L248.80-25.44L248.80-15.48L263.28-15.48L263.28-12.96L248.80-12.96L248.80-2.56Z M274.00 0L274.00-29.68L276.84-29.68L276.84 0L274.00 0Z M305.12-10.52L305.08-9.64L287.48-9.64Q287.72-6.36 290.00-4.34Q292.28-2.32 295.76-2.32L295.76-2.32Q297.72-2.32 299.36-3.02Q301.00-3.72 302.20-5.08L302.20-5.08L303.80-3.24Q302.40-1.56 300.30-0.68Q298.20 0.20 295.68 0.20L295.68 0.20Q292.44 0.20 289.94-1.18Q287.44-2.56 286.04-5Q284.64-7.44 284.64-10.52L284.64-10.52Q284.64-13.60 285.98-16.04Q287.32-18.48 289.66-19.84Q292.00-21.20 294.92-21.20L294.92-21.20Q297.84-21.20 300.16-19.84Q302.48-18.48 303.80-16.06Q305.12-13.64 305.12-10.52L305.12-10.52ZM294.92-18.76Q291.88-18.76 289.82-16.82Q287.76-14.88 287.48-11.76L287.48-11.76L302.40-11.76Q302.12-14.88 300.06-16.82Q298.00-18.76 294.92-18.76L294.92-18.76Z M329.68-21.04L332.40-21.04L332.40-2.56Q332.40 2.80 329.78 5.38Q327.16 7.96 321.88 7.96L321.88 7.96Q318.96 7.96 316.34 7.10Q313.72 6.24 312.08 4.72L312.08 4.72L313.52 2.56Q315.04 3.92 317.22 4.68Q319.40 5.44 321.80 5.44L321.80 5.44Q325.80 5.44 327.68 3.58Q329.56 1.72 329.56-2.20L329.56-2.20L329.56-4.88Q328.24-2.88 326.10-1.84Q323.96-0.80 321.36-0.80L321.36-0.80Q318.40-0.80 315.98-2.10Q313.56-3.40 312.18-5.74Q310.80-8.08 310.80-11.04L310.80-11.04Q310.80-14 312.18-16.32Q313.56-18.64 315.96-19.92Q318.36-21.20 321.36-21.20L321.36-21.20Q324.04-21.20 326.20-20.12Q328.36-19.04 329.68-17L329.68-17L329.68-21.04ZM321.64-3.32Q323.92-3.32 325.76-4.30Q327.60-5.28 328.62-7.04Q329.64-8.80 329.64-11.04L329.64-11.04Q329.64-13.28 328.62-15.02Q327.60-16.76 325.78-17.74Q323.96-18.72 321.64-18.72L321.64-18.72Q319.36-18.72 317.54-17.76Q315.72-16.80 314.70-15.04Q313.68-13.28 313.68-11.04L313.68-11.04Q313.68-8.80 314.70-7.04Q315.72-5.28 317.54-4.30Q319.36-3.32 321.64-3.32L321.64-3.32Z M349.72-21.20Q353.84-21.20 356.04-19.14Q358.24-17.08 358.24-13.04L358.24-13.04L358.24 0L355.52 0L355.52-3.28Q354.56-1.64 352.70-0.72Q350.84 0.20 348.28 0.20L348.28 0.20Q344.76 0.20 342.68-1.48Q340.60-3.16 340.60-5.92L340.60-5.92Q340.60-8.60 342.54-10.24Q344.48-11.88 348.72-11.88L348.72-11.88L355.40-11.88L355.40-13.16Q355.40-15.88 353.88-17.30Q352.36-18.72 349.44-18.72L349.44-18.72Q347.44-18.72 345.60-18.06Q343.76-17.40 342.44-16.24L342.44-16.24L341.16-18.36Q342.76-19.72 345-20.46Q347.24-21.20 349.72-21.20L349.72-21.20ZM348.72-2.04Q351.12-2.04 352.84-3.14Q354.56-4.24 355.40-6.32L355.40-6.32L355.40-9.76L348.80-9.76Q343.40-9.76 343.40-6L343.40-6Q343.40-4.16 344.80-3.10Q346.20-2.04 348.72-2.04L348.72-2.04Z M378.68-21.20Q382.64-21.20 384.98-18.90Q387.32-16.60 387.32-12.20L387.32-12.20L387.32 0L384.48 0L384.48-11.92Q384.48-15.20 382.84-16.92Q381.20-18.64 378.16-18.64L378.16-18.64Q374.76-18.64 372.78-16.62Q370.80-14.60 370.80-11.04L370.80-11.04L370.80 0L367.96 0L367.96-21.04L370.68-21.04L370.68-17.16Q371.84-19.08 373.90-20.14Q375.96-21.20 378.68-21.20L378.68-21.20Z M405.84 0.20Q402.72 0.20 400.26-1.16Q397.80-2.52 396.40-4.98Q395.00-7.44 395.00-10.52L395.00-10.52Q395.00-13.60 396.40-16.04Q397.80-18.48 400.26-19.84Q402.72-21.20 405.84-21.20L405.84-21.20Q408.56-21.20 410.70-20.14Q412.84-19.08 414.08-17.04L414.08-17.04L411.96-15.60Q410.92-17.16 409.32-17.94Q407.72-18.72 405.84-18.72L405.84-18.72Q403.56-18.72 401.74-17.70Q399.92-16.68 398.90-14.80Q397.88-12.92 397.88-10.52L397.88-10.52Q397.88-8.08 398.90-6.22Q399.92-4.36 401.74-3.34Q403.56-2.32 405.84-2.32L405.84-2.32Q407.72-2.32 409.32-3.08Q410.92-3.84 411.96-5.40L411.96-5.40L414.08-3.96Q412.84-1.92 410.68-0.86Q408.52 0.20 405.84 0.20L405.84 0.20Z M439.64-10.52L439.60-9.64L422.00-9.64Q422.24-6.36 424.52-4.34Q426.80-2.32 430.28-2.32L430.28-2.32Q432.24-2.32 433.88-3.02Q435.52-3.72 436.72-5.08L436.72-5.08L438.32-3.24Q436.92-1.56 434.82-0.68Q432.72 0.20 430.20 0.20L430.20 0.20Q426.96 0.20 424.46-1.18Q421.96-2.56 420.56-5Q419.16-7.44 419.16-10.52L419.16-10.52Q419.16-13.60 420.50-16.04Q421.84-18.48 424.18-19.84Q426.52-21.20 429.44-21.20L429.44-21.20Q432.36-21.20 434.68-19.84Q437.00-18.48 438.32-16.06Q439.64-13.64 439.64-10.52L439.64-10.52ZM429.44-18.76Q426.40-18.76 424.34-16.82Q422.28-14.88 422.00-11.76L422.00-11.76L436.92-11.76Q436.64-14.88 434.58-16.82Q432.52-18.76 429.44-18.76L429.44-18.76Z M466.88-27.48Q465.04-27.48 464.10-26.48Q463.16-25.48 463.16-23.52L463.16-23.52L463.16-21.04L469.64-21.04L469.64-18.64L463.24-18.64L463.24 0L460.40 0L460.40-18.64L456.64-18.64L456.64-21.04L460.40-21.04L460.40-23.64Q460.40-26.52 462.06-28.20Q463.72-29.88 466.76-29.88L466.76-29.88Q467.96-29.88 469.08-29.54Q470.20-29.20 470.96-28.56L470.96-28.56L470-26.44Q468.76-27.48 466.88-27.48L466.88-27.48Z M483.72 0.20Q480.68 0.20 478.24-1.18Q475.80-2.56 474.40-5Q473.00-7.44 473.00-10.52L473.00-10.52Q473.00-13.60 474.40-16.04Q475.80-18.48 478.24-19.84Q480.68-21.20 483.72-21.20L483.72-21.20Q486.76-21.20 489.20-19.84Q491.64-18.48 493.02-16.04Q494.40-13.60 494.40-10.52L494.40-10.52Q494.40-7.44 493.02-5Q491.64-2.56 489.20-1.18Q486.76 0.20 483.72 0.20L483.72 0.20ZM483.72-2.32Q485.96-2.32 487.74-3.34Q489.52-4.36 490.52-6.24Q491.52-8.12 491.52-10.52L491.52-10.52Q491.52-12.92 490.52-14.80Q489.52-16.68 487.74-17.70Q485.96-18.72 483.72-18.72L483.72-18.72Q481.48-18.72 479.70-17.70Q477.92-16.68 476.90-14.80Q475.88-12.92 475.88-10.52L475.88-10.52Q475.88-8.12 476.90-6.24Q477.92-4.36 479.70-3.34Q481.48-2.32 483.72-2.32L483.72-2.32Z M504.92-16.92Q505.92-19.04 507.90-20.12Q509.88-21.20 512.80-21.20L512.80-21.20L512.80-18.44L512.12-18.48Q508.80-18.48 506.92-16.44Q505.04-14.40 505.04-10.72L505.04-10.72L505.04 0L502.20 0L502.20-21.04L504.92-21.04L504.92-16.92Z M536.28-2.56L553.12-2.56L553.12 0L533.32 0L533.32-28L552.52-28L552.52-25.44L536.28-25.44L536.28-15.48L550.76-15.48L550.76-12.96L536.28-12.96L536.28-2.56Z M575.92-21.04L578.72-21.04L569.36 0L566.44 0L557.12-21.04L560.08-21.04L567.96-3.12L575.92-21.04Z M602.48-10.52L602.44-9.64L584.84-9.64Q585.08-6.36 587.36-4.34Q589.64-2.32 593.12-2.32L593.12-2.32Q595.08-2.32 596.72-3.02Q598.36-3.72 599.56-5.08L599.56-5.08L601.16-3.24Q599.76-1.56 597.66-0.68Q595.56 0.20 593.04 0.20L593.04 0.20Q589.80 0.20 587.30-1.18Q584.80-2.56 583.40-5Q582.00-7.44 582.00-10.52L582.00-10.52Q582.00-13.60 583.34-16.04Q584.68-18.48 587.02-19.84Q589.36-21.20 592.28-21.20L592.28-21.20Q595.20-21.20 597.52-19.84Q599.84-18.48 601.16-16.06Q602.48-13.64 602.48-10.52L602.48-10.52ZM592.28-18.76Q589.24-18.76 587.18-16.82Q585.12-14.88 584.84-11.76L584.84-11.76L599.76-11.76Q599.48-14.88 597.42-16.82Q595.36-18.76 592.28-18.76L592.28-18.76Z M613.00-16.92Q614.00-19.04 615.98-20.12Q617.96-21.20 620.88-21.20L620.88-21.20L620.88-18.44L620.20-18.48Q616.88-18.48 615.00-16.44Q613.12-14.40 613.12-10.72L613.12-10.72L613.12 0L610.28 0L610.28-21.04L613.00-21.04L613.00-16.92Z M643.80-21.04L646.60-21.04L636.08 2.52Q634.80 5.48 633.12 6.72Q631.44 7.96 629.08 7.96L629.08 7.96Q627.56 7.96 626.24 7.48Q624.92 7 623.96 6.04L623.96 6.04L625.28 3.92Q626.88 5.52 629.12 5.52L629.12 5.52Q630.56 5.52 631.58 4.72Q632.60 3.92 633.48 2L633.48 2L634.40-0.04L625.00-21.04L627.96-21.04L635.88-3.16L643.80-21.04Z M673.40 0.24Q670.28 0.24 667.42-0.76Q664.56-1.76 663.00-3.40L663.00-3.40L664.16-5.68Q665.68-4.16 668.20-3.22Q670.72-2.28 673.40-2.28L673.40-2.28Q677.16-2.28 679.04-3.66Q680.92-5.04 680.92-7.24L680.92-7.24Q680.92-8.92 679.90-9.92Q678.88-10.92 677.40-11.46Q675.92-12 673.28-12.64L673.28-12.64Q670.12-13.44 668.24-14.18Q666.36-14.92 665.02-16.44Q663.68-17.96 663.68-20.56L663.68-20.56Q663.68-22.68 664.80-24.42Q665.92-26.16 668.24-27.20Q670.56-28.24 674.00-28.24L674.00-28.24Q676.40-28.24 678.70-27.58Q681.00-26.92 682.68-25.76L682.68-25.76L681.68-23.40Q679.92-24.56 677.92-25.14Q675.92-25.72 674.00-25.72L674.00-25.72Q670.32-25.72 668.46-24.30Q666.60-22.88 666.60-20.64L666.60-20.64Q666.60-18.96 667.62-17.94Q668.64-16.92 670.18-16.38Q671.72-15.84 674.32-15.20L674.32-15.20Q677.40-14.44 679.30-13.70Q681.20-12.96 682.52-11.46Q683.84-9.96 683.84-7.40L683.84-7.40Q683.84-5.28 682.70-3.54Q681.56-1.80 679.20-0.78Q676.84 0.24 673.40 0.24L673.40 0.24Z M701.76-3.32L702.76-1.28Q701.96-0.56 700.78-0.18Q699.60 0.20 698.32 0.20L698.32 0.20Q695.36 0.20 693.76-1.40Q692.16-3 692.16-5.92L692.16-5.92L692.16-18.64L688.40-18.64L688.40-21.04L692.16-21.04L692.16-25.64L695.00-25.64L695.00-21.04L701.40-21.04L701.40-18.64L695.00-18.64L695.00-6.08Q695.00-4.20 695.94-3.22Q696.88-2.24 698.64-2.24L698.64-2.24Q699.52-2.24 700.34-2.52Q701.16-2.80 701.76-3.32L701.76-3.32Z M724.40-21.04L727.20-21.04L716.68 2.52Q715.40 5.48 713.72 6.72Q712.04 7.96 709.68 7.96L709.68 7.96Q708.16 7.96 706.84 7.48Q705.52 7 704.56 6.04L704.56 6.04L705.88 3.92Q707.48 5.52 709.72 5.52L709.72 5.52Q711.16 5.52 712.18 4.72Q713.20 3.92 714.08 2L714.08 2L715.00-0.04L705.60-21.04L708.56-21.04L716.48-3.16L724.40-21.04Z M733.20 0L733.20-29.68L736.04-29.68L736.04 0L733.20 0Z M764.32-10.52L764.28-9.64L746.68-9.64Q746.92-6.36 749.20-4.34Q751.48-2.32 754.96-2.32L754.96-2.32Q756.92-2.32 758.56-3.02Q760.20-3.72 761.40-5.08L761.40-5.08L763.00-3.24Q761.60-1.56 759.50-0.68Q757.40 0.20 754.88 0.20L754.88 0.20Q751.64 0.20 749.14-1.18Q746.64-2.56 745.24-5Q743.84-7.44 743.84-10.52L743.84-10.52Q743.84-13.60 745.18-16.04Q746.52-18.48 748.86-19.84Q751.20-21.20 754.12-21.20L754.12-21.20Q757.04-21.20 759.36-19.84Q761.68-18.48 763.00-16.06Q764.32-13.64 764.32-10.52L764.32-10.52ZM754.12-18.76Q751.08-18.76 749.02-16.82Q746.96-14.88 746.68-11.76L746.68-11.76L761.60-11.76Q761.32-14.88 759.26-16.82Q757.20-18.76 754.12-18.76L754.12-18.76Z"/></g>
</svg>
</g><g opacity="1" transform="rotate(0 142.0833 156.2011)">
<svg width="382.5002" height="120" x="142.0833" y="156.2011" version="1.1" preserveAspectRatio="none" viewBox="2.12 -28.88 93.83999999999999 29.44">
  <g transform="matrix(1 0 0 1 0 0)" class="companyName"><path id="id-D6z1nYkh4" d="M14.84-28.88Q17.24-28.88 18.92-28.20Q20.60-27.52 22.20-26.28L22.20-26.28Q22.64-25.92 22.96-25.92L22.96-25.92Q23.76-25.92 24-28.32L24-28.32L24.92-28.32Q24.76-25.72 24.76-19.12L24.76-19.12L23.84-19.12Q23.40-21.72 23.04-22.86Q22.68-24 21.84-25.04L21.84-25.04Q20.64-26.60 18.78-27.38Q16.92-28.16 14.76-28.16L14.76-28.16Q12.16-28.16 10.22-26.44Q8.28-24.72 7.20-21.54Q6.12-18.36 6.12-14.08L6.12-14.08Q6.12-9.72 7.28-6.60Q8.44-3.48 10.50-1.86Q12.56-0.24 15.16-0.24L15.16-0.24Q17.16-0.24 19.04-1Q20.92-1.76 22-3.28L22-3.28Q22.80-4.40 23.16-5.68Q23.52-6.96 23.84-9.60L23.84-9.60L24.76-9.60Q24.76-2.72 24.92 0L24.92 0L24 0Q23.88-1.28 23.66-1.82Q23.44-2.36 23.04-2.36L23.04-2.36Q22.72-2.36 22.20-2.04L22.20-2.04Q20.40-0.76 18.76-0.10Q17.12 0.56 14.80 0.56L14.80 0.56Q11 0.56 8.14-1.16Q5.28-2.88 3.70-6.14Q2.12-9.40 2.12-13.92L2.12-13.92Q2.12-18.32 3.74-21.72Q5.36-25.12 8.26-27Q11.16-28.88 14.84-28.88L14.84-28.88Z M56.12-27.52Q54.68-27.44 54.02-27.20Q53.36-26.96 53.12-26.28Q52.88-25.60 52.88-24.08L52.88-24.08L52.88-4.24Q52.88-2.72 53.12-2.04Q53.36-1.36 54.02-1.12Q54.68-0.88 56.12-0.80L56.12-0.80L56.12 0Q54.44-0.12 51-0.12L51-0.12Q47.76-0.12 45.92 0L45.92 0L45.92-0.80Q47.36-0.88 48.02-1.12Q48.68-1.36 48.92-2.04Q49.16-2.72 49.16-4.24L49.16-4.24L49.16-13.84L36.16-13.84L36.16-4.24Q36.16-2.72 36.40-2.04Q36.64-1.36 37.30-1.12Q37.96-0.88 39.40-0.80L39.40-0.80L39.40 0Q37.56-0.12 34.32-0.12L34.32-0.12Q30.88-0.12 29.20 0L29.20 0L29.20-0.80Q30.64-0.88 31.30-1.12Q31.96-1.36 32.20-2.04Q32.44-2.72 32.44-4.24L32.44-4.24L32.44-24.08Q32.44-25.60 32.20-26.28Q31.96-26.96 31.30-27.20Q30.64-27.44 29.20-27.52L29.20-27.52L29.20-28.32Q30.88-28.20 34.32-28.20L34.32-28.20Q37.52-28.20 39.40-28.32L39.40-28.32L39.40-27.52Q37.96-27.44 37.30-27.20Q36.64-26.96 36.40-26.28Q36.16-25.60 36.16-24.08L36.16-24.08L36.16-14.64L49.16-14.64L49.16-24.08Q49.16-25.60 48.92-26.28Q48.68-26.96 48.02-27.20Q47.36-27.44 45.92-27.52L45.92-27.52L45.92-28.32Q47.76-28.20 51-28.20L51-28.20Q54.44-28.20 56.12-28.32L56.12-28.32L56.12-27.52Z M69.68-28.32L69.68-27.52Q68.24-27.44 67.58-27.20Q66.92-26.96 66.68-26.28Q66.44-25.60 66.44-24.08L66.44-24.08L66.44-4.24Q66.44-2.72 66.68-2.04Q66.92-1.36 67.58-1.12Q68.24-0.88 69.68-0.80L69.68-0.80L69.68 0Q67.84-0.12 64.60-0.12L64.60-0.12Q61.16-0.12 59.48 0L59.48 0L59.48-0.80Q60.92-0.88 61.58-1.12Q62.24-1.36 62.48-2.04Q62.72-2.72 62.72-4.24L62.72-4.24L62.72-24.08Q62.72-25.60 62.48-26.28Q62.24-26.96 61.58-27.20Q60.92-27.44 59.48-27.52L59.48-27.52L59.48-28.32Q61.16-28.20 64.60-28.20L64.60-28.20Q67.80-28.20 69.68-28.32L69.68-28.32Z M85.88-28.88Q88.28-28.88 89.96-28.20Q91.64-27.52 93.24-26.28L93.24-26.28Q93.68-25.92 94-25.92L94-25.92Q94.80-25.92 95.04-28.32L95.04-28.32L95.96-28.32Q95.80-25.72 95.80-19.12L95.80-19.12L94.88-19.12Q94.44-21.72 94.08-22.86Q93.72-24 92.88-25.04L92.88-25.04Q91.68-26.60 89.82-27.38Q87.96-28.16 85.80-28.16L85.80-28.16Q83.20-28.16 81.26-26.44Q79.32-24.72 78.24-21.54Q77.16-18.36 77.16-14.08L77.16-14.08Q77.16-9.72 78.32-6.60Q79.48-3.48 81.54-1.86Q83.60-0.24 86.20-0.24L86.20-0.24Q88.20-0.24 90.08-1Q91.96-1.76 93.04-3.28L93.04-3.28Q93.84-4.40 94.20-5.68Q94.56-6.96 94.88-9.60L94.88-9.60L95.80-9.60Q95.80-2.72 95.96 0L95.96 0L95.04 0Q94.92-1.28 94.70-1.82Q94.48-2.36 94.08-2.36L94.08-2.36Q93.76-2.36 93.24-2.04L93.24-2.04Q91.44-0.76 89.80-0.10Q88.16 0.56 85.84 0.56L85.84 0.56Q82.04 0.56 79.18-1.16Q76.32-2.88 74.74-6.14Q73.16-9.40 73.16-13.92L73.16-13.92Q73.16-18.32 74.78-21.72Q76.40-25.12 79.30-27Q82.20-28.88 85.88-28.88L85.88-28.88Z"/></g>
</svg>
</g><g opacity="1" transform="rotate(-16 197.304 290.2724)">
<svg width="251.459" height="110.0749" x="197.304" y="290.2724" version="1.1" preserveAspectRatio="none" viewBox="0.04 -28.28 102.8 45">
  <g transform="matrix(1 0 0 1 0 0)" class="a-VpF9B9iXcolor"><path id="id--VpF9B9iX6" d="M23.52-15.76L23.52-15.76Q23.52-15.76 25.28-15.88L25.28-15.88Q28.12-15.88 29.50-14.82Q30.88-13.76 30.88-11.82Q30.88-9.88 29.12-7.28Q27.36-4.68 24.56-2.56L24.56-2.56L26.84-2.56Q28.24-2.56 28.80-2.68Q29.36-2.80 29.44-2.80L29.44-2.80Q30-2.80 30-2.20Q30-1.60 29.20-1.56L29.20-1.56Q26.12-1.56 23.28-1.64L23.28-1.64Q18.80 1.20 14.48 1.20L14.48 1.20Q12.44 1.20 11.24 0.44Q10.04-0.32 10.04-1.10Q10.04-1.88 10.70-2.32Q11.36-2.76 12.56-2.76L12.56-2.76Q17.24-2.76 23.04-2.56L23.04-2.56Q25.44-4.52 26.88-7.10Q28.32-9.68 28.32-11.76L28.32-11.76Q28.32-15.08 24.76-15.08L24.76-15.08Q23.36-15.08 21.86-14.64Q20.36-14.20 20.06-14.02Q19.76-13.84 19.68-13.84L19.68-13.84Q19.44-13.84 19.44-14.18Q19.44-14.52 20.48-15L20.48-15Q25.04-17.20 29.40-20.86Q33.76-24.52 33.76-26.08L33.76-26.08Q33.76-26.80 32.64-26.80L32.64-26.80Q28.08-26.76 20.12-19.96L20.12-19.96Q18.52-15.84 14.86-9.84Q11.20-3.84 7.20 0.90Q3.20 5.64 1.24 5.64L1.24 5.64Q0.04 5.64 0.04 4.40L0.04 4.40Q0.04 1.56 5.42-5.72Q10.80-13 17.60-19.12L17.60-19.12Q18.80-22.04 18.80-23.38Q18.80-24.72 18.16-25.50Q17.52-26.28 16.28-26.64L16.28-26.64Q14.32-27.16 12.14-27.16Q9.96-27.16 8.80-27.06Q7.64-26.96 5.98-26.66Q4.32-26.36 3.28-25.62Q2.24-24.88 2.24-23.74Q2.24-22.60 3.36-21.98Q4.48-21.36 6.10-21.12Q7.72-20.88 9.32-20.60Q10.92-20.32 12.04-19.50Q13.16-18.68 13.16-17.20L13.16-17.20Q13.16-16.80 12.98-16.80Q12.80-16.80 12.70-16.92Q12.60-17.04 12.36-17.40L12.36-17.40Q12-17.92 11.30-18.20Q10.60-18.48 9.14-18.74Q7.68-19 6.38-19.30Q5.08-19.60 3.76-20.08Q2.44-20.56 1.64-21.44Q0.84-22.32 0.84-23.50Q0.84-24.68 1.84-25.60Q2.84-26.52 4.48-27.04L4.48-27.04Q7.84-28.04 11.48-28.04L11.48-28.04Q20.92-28.04 20.92-23.08L20.92-23.08Q20.92-22.64 20.72-21.76L20.72-21.76Q28.80-28.28 33.84-28.28L33.84-28.28Q36.08-28.28 36.08-26.92L36.08-26.92Q36.08-24.96 31.98-21.36Q27.88-17.76 23.52-15.76ZM2.24 4.48L2.24 4.48Q3.40 4.48 8.46-2.94Q13.52-10.36 16.56-16.76L16.56-16.76Q10.56-11.04 5.94-4.86Q1.32 1.32 1.32 3.56L1.32 3.56Q1.32 4.48 2.24 4.48ZM21.80-1.68L21.80-1.68L14.56-1.84Q11.48-1.84 11.48-0.92L11.48-0.92Q11.48-0.40 12.52 0.06Q13.56 0.52 14.92 0.52L14.92 0.52Q18.48 0.52 21.80-1.68Z M36.36-0.52L36.36-0.52Q36.36-1.12 36.94-2.08Q37.52-3.04 37.56-3.20Q37.60-3.36 37.48-3.36Q37.36-3.36 37.14-3.14Q36.92-2.92 34.70-1.46Q32.48 0 31.64 0L31.64 0Q31.08 0 31.08-0.72Q31.08-1.44 33.32-4.44Q35.56-7.44 36.48-7.44L36.48-7.44Q36.68-7.44 36.86-7.26Q37.04-7.08 37.04-6.98Q37.04-6.88 34.98-4.52Q32.92-2.16 32.92-1.48L32.92-1.48Q32.92-1.32 33.08-1.32L33.08-1.32Q33.84-1.32 36.36-3.36Q38.88-5.40 39.94-6.52Q41-7.64 41.60-7.64Q42.20-7.64 42.20-7.12L42.20-7.12Q42.20-6.80 41.96-6.48Q41.72-6.16 41.06-5.34Q40.40-4.52 39.84-3.80L39.84-3.80Q38.28-1.80 38.28-1.30Q38.28-0.80 38.70-0.80Q39.12-0.80 40.76-1.92L40.76-1.92Q43.80-3.92 46.32-5.96L46.32-5.96L47.20-6.68Q47.48-6.88 47.68-6.88Q47.88-6.88 47.88-6.64L47.88-6.64L47.88-6.52Q48.04-6.52 45.74-4.76Q43.44-3 40.82-1.24Q38.20 0.52 37.52 0.52L37.52 0.52Q36.36 0.52 36.36-0.52Z M50-5.72L50-5.72L51.28-7.68Q51.16-7.72 51.04-7.72L51.04-7.72Q49.36-7.72 46.64-5.16Q43.92-2.60 43.92-1.56L43.92-1.56Q43.92-1.28 44.24-1.28L44.24-1.28Q45.24-1.28 47.28-2.98Q49.32-4.68 50-5.72ZM58.92-6.56L58.92-6.48Q50.60 0.24 48.84 0.24L48.84 0.24Q48.16 0.24 48.16-0.56Q48.16-1.36 48.76-3.24L48.76-3.24Q48.76-3.28 48.68-3.28L48.68-3.28Q44.08 0.52 42.56 0.52L42.56 0.52Q41.52 0.52 41.52-0.24L41.52-0.24Q41.52-1.92 45.14-5.16Q48.76-8.40 50.92-8.40L50.92-8.40Q51.20-8.40 51.52-8L51.52-8Q52.44-9.36 61.84-22.76L61.84-22.76Q62.84-24 63.46-24Q64.08-24 64.08-23.60L64.08-23.60Q64.08-22.60 57.20-14.16L57.20-14.16Q54.64-10.96 52.50-7.50Q50.36-4.04 50.36-2.24L50.36-2.24Q50.36-1.48 50.80-1.48L50.80-1.48Q51.32-1.48 52.64-2.40L52.64-2.40Q55.36-4.36 57.40-6L57.40-6L58.16-6.64Q58.44-6.84 58.68-6.84Q58.92-6.84 58.92-6.56L58.92-6.56Z M69.12-5.84L70.04-6.64Q70.32-6.84 70.56-6.84Q70.80-6.84 70.80-6.56L70.80-6.56L70.80-6.48Q66.92-3.28 64.72-1.84L64.72-1.84L56.72 3.36L54.24 6.84Q48.48 14.72 48.48 15.32L48.48 15.32Q47.84 16.72 47.24 16.72L47.24 16.72Q46.48 16.72 46.48 15.72Q46.48 14.72 47.46 13.04Q48.44 11.36 49.40 10.32L49.40 10.32L53.20 6.32Q53.68 5.56 55.16 3.52Q56.64 1.48 57.12 0.80L57.12 0.80L58.84-1.76L58.92-1.92Q58.92-2 58.84-2L58.84-2Q56.48-0.04 54.92-0.04Q53.36-0.04 53.36-0.94Q53.36-1.84 54.56-3.32Q55.76-4.80 57.46-6.20Q59.16-7.60 61.22-8.62Q63.28-9.64 64.86-9.64Q66.44-9.64 66.44-8.52L66.44-8.52Q66.44-7.72 64.94-6.60Q63.44-5.48 63.10-5.48Q62.76-5.48 62.76-5.64L62.76-5.64Q62.76-5.88 63.08-6.08L63.08-6.08Q64.44-7.04 64.44-7.90Q64.44-8.76 63.72-8.76L63.72-8.76Q61.96-8.76 58.82-5.78Q55.68-2.80 55.68-1.56L55.68-1.56Q55.68-1.20 56.26-1.20Q56.84-1.20 58.24-2.14Q59.64-3.08 60.36-3.96L60.36-3.96L61.44-5.32Q61.64-5.60 61.96-5.60Q62.28-5.60 62.52-5.40Q62.76-5.20 62.76-5L62.76-5L57.92 1.72L63.84-2Q66.48-3.60 69.12-5.84L69.12-5.84Z M79.32-5.80L80.32-6.64Q80.60-6.84 80.84-6.84Q81.08-6.84 81.08-6.56L81.08-6.56L81.08-6.48Q76.92-3.04 74.16-1.32Q71.40 0.40 69.16 0.40L69.16 0.40Q67.36 0.40 67.36-1.36L67.36-1.36Q67.36-3.96 70-6.70Q72.64-9.44 74.44-9.44L74.44-9.44Q75.44-9.44 75.44-8.32L75.44-8.32Q75.24-6.12 69.12-2.40L69.12-2.40L69.12-2Q69.12-0.68 70.50-0.68Q71.88-0.68 73.48-1.60L73.48-1.60Q76.60-3.44 79.32-5.80L79.32-5.80ZM73.40-8.20L73.40-8.20Q72.52-8.20 71.14-6.72Q69.76-5.24 69.28-3.36L69.28-3.36Q71.20-4.52 72.52-5.82Q73.84-7.12 73.84-7.66Q73.84-8.20 73.40-8.20Z M101.92-16.96L101.92-16.96L96.20-17.24Q92.68-17.24 89.20-16.96L89.20-16.96L89.40-16.16Q89.40-15.72 86.80-12.82Q84.20-9.92 81.60-6.50Q79-3.08 79-1.44L79-1.44Q79-0.80 79.46-0.80Q79.92-0.80 81.56-1.92L81.56-1.92Q84.60-3.92 87.12-5.96L87.12-5.96L88-6.68Q88.28-6.88 88.48-6.88Q88.68-6.88 88.68-6.64L88.68-6.64L88.68-6.52Q88.84-6.52 86.54-4.76Q84.24-3 81.62-1.24Q79 0.52 78.32 0.52L78.32 0.52Q77.16 0.52 77.16-0.52L77.16-0.52Q77.16-2.04 78.86-4.72Q80.56-7.40 82.58-9.78Q84.60-12.16 86.42-14.28Q88.24-16.40 88.40-16.88L88.40-16.88Q84-16.48 81.64-15.92L81.64-15.92L80.84-15.76Q80.52-15.72 80.52-15.16L80.52-15.16Q80.52-14.92 79.96-14.92Q79.40-14.92 78.58-15.18Q77.76-15.44 77.76-15.92Q77.76-16.40 78.56-16.56L78.56-16.56Q84.48-17.60 86.96-17.82Q89.44-18.04 90.26-18.10Q91.08-18.16 92.82-18.20Q94.56-18.24 95.16-18.24L95.16-18.24Q96.96-18.32 99.38-18.32Q101.80-18.32 102.32-18.12Q102.84-17.92 102.84-17.36L102.84-17.36Q102.84-16.96 101.92-16.96Z"/></g>
</svg>
</g></svg></svg>