<svg version="1.1" preserveAspectRatio="none" xmlns="http://www.w3.org/2000/svg" width="500" height="500" viewBox="0 0 500 500"><rect width="100%" height="100%" fill="#FFFFFF" fill-opacity="1"/><svg viewBox="263.4391 181.7214 203.9766 144" width="333" height="235.0857892522966" x="83.5px" y="132.4571px" xmlns="http://www.w3.org/2000/svg" xmlns:xlink="http://www.w3.org/1999/xlink" preserveAspectRatio="none"><defs></defs><style>.aD-YM9nyY4color {fill:#1A1245;fill-opacity:1;}.aD6z1nYkhcolor {fill:#1A1245;fill-opacity:1;}.atBXipXk0bfillColor {fill:#808080;fill-opacity:1;}.icon3-str {stroke:#C8B889;stroke-opacity:1;}.shapeStroke-str {stroke:#2C3E57;stroke-opacity:1;}</style><g opacity="1" transform="rotate(0 280.4391 181.7214)">
<svg width="186.9766" height="120" x="280.4391" y="181.7214" version="1.1" preserveAspectRatio="none" viewBox="1.7969 -29.1992 128.98430000000002 82.7812">
  <g transform="matrix(1 0 0 1 0 0)" class="aD6z1nYkhcolor"><path id="id-D6z1nYkh10" d="M14.67 1.11L14.67 1.11Q8.44 1.11 4.55-2.87L4.55-2.87Q1.80-5.66 1.80-9.96L1.80-9.96Q1.80-11.74 2.27-13.75L2.27-13.75Q3.83-20.47 9.38-24.54Q14.92-28.61 21.37-28.61L21.37-28.61Q23.67-28.61 26.17-28.10Q28.67-27.58 30.94-25.88L30.94-25.88L29.43-21.54Q29.16-20.92 28.50-20.92L28.50-20.92L28.42-20.92Q27.81-20.98 27.58-21.78L27.58-21.78Q26.95-24.34 25.44-25.16Q23.93-25.98 20.94-25.98L20.94-25.98Q16.78-25.98 12.80-23.05Q8.83-20.12 7.34-13.63L7.34-13.63Q7.05-12.36 7.05-11.15L7.05-11.15Q7.05-8.32 8.59-5.63L8.59-5.63Q10.70-1.88 15.16-1.66L15.16-1.66Q15.63-1.64 16.04-1.64L16.04-1.64Q18.42-1.64 20.10-2.36L20.10-2.36Q22.05-3.20 23.87-5.82L23.87-5.82Q24.39-6.48 24.90-6.56L24.90-6.56L25.04-6.56Q25.80-6.56 25.80-5.86L25.80-5.86L25.80-5.80L25.72-5.25L22.83-0.31Q20.55 0.55 18.50 0.83Q16.45 1.11 14.67 1.11Z M36.70-15.23L33.85-2.77Q33.77-2.50 33.77-2.29L33.77-2.29Q33.77-1.76 34.16-1.60L34.16-1.60Q35.25-1.17 35.25-0.53L35.25-0.53Q35.25-0.43 35.21-0.33L35.21-0.33Q35.06 0.39 34.26 0.39L34.26 0.39L27.64 0.39Q26.82 0.39 26.82-0.27L26.82-0.27Q26.82-0.37 26.84-0.49L26.84-0.49Q27.01-1.17 28.07-1.51Q29.12-1.86 29.36-2.91L29.36-2.91L34.36-24.63Q34.43-24.90 34.43-25.12L34.43-25.12Q34.43-25.64 34.02-25.80L34.02-25.80Q32.95-26.23 32.95-26.89L32.95-26.89Q32.95-26.99 32.99-27.09L32.99-27.09Q33.14-27.81 33.95-27.81L33.95-27.81Q35.20-27.87 36.49-28.19Q37.79-28.52 39.94-29.20L39.94-29.20L37.19-17.30Q37.52-17.42 38.42-17.73Q39.32-18.05 40.12-18.32L40.12-18.32Q42.13-18.96 44.16-19.16L44.16-19.16Q44.43-19.18 44.71-19.18L44.71-19.18Q46.56-19.18 47.95-17.93L47.95-17.93Q49.20-16.76 49.20-14.12L49.20-14.12Q49.20-12.32 48.63-9.82L48.63-9.82L47.01-2.77Q46.93-2.50 46.93-2.29L46.93-2.29Q46.93-1.76 47.32-1.60L47.32-1.60Q48.42-1.17 48.42-0.53L48.42-0.53Q48.42-0.43 48.38-0.33L48.38-0.33Q48.22 0.39 47.42 0.39L47.42 0.39L42.68 0.39Q41.91 0.39 41.91-0.18L41.91-0.18L41.91-0.29L44.14-9.94Q44.55-11.70 44.55-13.01L44.55-13.01Q44.55-14.77 43.83-15.70L43.83-15.70Q43.09-16.62 41.72-16.62L41.72-16.62Q40.88-16.62 39.77-16.27L39.77-16.27Q39.30-16.13 38.59-15.89Q37.89-15.64 37.34-15.45L37.34-15.45Q36.86-15.29 36.70-15.23L36.70-15.23Z M61.41-27.73L61.41-27.73Q63.63-27.73 63.63-25.92L63.63-25.92Q63.63-25.57 63.54-25.12L63.54-25.12Q62.95-22.64 60.41-22.64L60.41-22.64Q58.20-22.64 58.20-24.43L58.20-24.43Q58.20-24.82 58.30-25.25L58.30-25.25Q58.87-27.73 61.41-27.73ZM61.97-20L58.01-2.77Q57.93-2.50 57.93-2.29L57.93-2.29Q57.93-1.76 58.32-1.60L58.32-1.60Q59.41-1.17 59.41-0.53L59.41-0.53Q59.41-0.43 59.38-0.33L59.38-0.33Q59.22 0.39 58.42 0.39L58.42 0.39L51.80 0.39Q50.98 0.39 50.98-0.27L50.98-0.27Q50.98-0.37 51.00-0.49L51.00-0.49Q51.17-1.17 52.23-1.51Q53.28-1.86 53.52-2.91L53.52-2.91L56.39-15.43Q56.46-15.68 56.46-15.90L56.46-15.90Q56.46-16.43 56.05-16.58L56.05-16.58Q54.98-17.01 54.98-17.68L54.98-17.68Q54.98-17.77 55.02-17.87L55.02-17.87Q55.18-18.59 55.98-18.59L55.98-18.59Q57.23-18.65 58.53-18.98Q59.82-19.32 61.97-20L61.97-20Z M75.92-19.06L75.92-19.06L76.35-19.06Q79.73-19.06 82.34-17.07L82.34-17.07L81.17-13.55Q80.96-13.01 80.39-13.01L80.39-13.01L80.29-13.01Q79.73-13.07 79.59-13.73L79.59-13.73Q79.24-15.29 78.28-15.96L78.28-15.96Q77.34-16.60 75.72-16.60L75.72-16.60L75.27-16.60Q73.30-16.50 71.99-15.49L71.99-15.49Q70.80-14.53 70.00-13.13L70.00-13.13Q69.22-11.78 68.81-10.04L68.81-10.04Q68.69-9.49 68.61-8.91L68.61-8.91Q68.46-7.95 68.46-7.09L68.46-7.09Q68.46-5.49 69.04-4.32L69.04-4.32Q70.21-2.09 72.13-1.80L72.13-1.80Q72.42-1.74 72.77-1.74L72.77-1.74Q74.39-1.74 76.68-2.85L76.68-2.85Q78.05-3.52 78.57-3.52L78.57-3.52Q78.91-3.52 79.06-3.36L79.06-3.36Q79.22-3.20 79.22-3.01L79.22-3.01L79.22-2.89Q79.14-2.56 78.75-1.99L78.75-1.99Q78.28-1.35 77.73-0.96L77.73-0.96Q76.33 0.08 74.53 0.48Q72.73 0.88 71.21 0.88L71.21 0.88Q67.34 0.86 65.21-1.31L65.21-1.31Q63.50-2.99 63.50-5.78L63.50-5.78Q63.50-6.50 63.61-7.30L63.61-7.30Q63.73-8.18 63.93-9.00L63.93-9.00Q64.18-10.08 64.55-11.09L64.55-11.09Q65.21-12.89 66.74-14.65L66.74-14.65Q68.34-16.54 70.72-17.74Q73.11-18.95 75.92-19.06Z M8.95 14.19L20.08 14.19Q22.09 14.19 24.17 14.92Q26.25 15.65 26.97 17.78L26.97 17.78Q27.27 18.62 27.27 19.64L27.27 19.64Q27.27 20.61 27.01 21.75L27.01 21.75Q26.45 23.93 24.84 25.65L24.84 25.65Q23.63 26.96 22.52 27.43L22.52 27.43Q24.36 28.07 25.20 30.46L25.20 30.46Q25.51 31.39 25.51 32.51L25.51 32.51Q25.51 33.58 25.23 34.81L25.23 34.81Q24.61 37.21 22.85 39.11L22.85 39.11Q21.29 40.77 18.97 41.58Q16.66 42.39 14.86 42.39L14.86 42.39L2.62 42.39Q1.80 42.39 1.80 41.73L1.80 41.73Q1.80 41.63 1.82 41.51L1.82 41.51Q1.99 40.83 3.05 40.48Q4.10 40.13 4.34 39.09L4.34 39.09L9.34 17.35Q9.41 17.10 9.41 16.88L9.41 16.88Q9.41 16.36 9.00 16.20L9.00 16.20Q7.93 15.77 7.93 15.11L7.93 15.11Q7.93 15.01 7.97 14.91L7.97 14.91Q8.13 14.19 8.95 14.19L8.95 14.19ZM15.61 28.97L11.19 28.97L8.59 40.18L12.42 40.18Q13.77 40.18 15.23 39.79Q16.70 39.40 17.89 38.43L17.89 38.43Q19.79 36.92 20.33 34.46L20.33 34.46Q20.51 33.70 20.51 33.05L20.51 33.05Q20.51 31.61 19.69 30.55L19.69 30.55Q18.42 28.97 15.61 28.97L15.61 28.97ZM14.06 16.51L11.76 26.49L16.52 26.49Q18.71 26.26 20.31 25.01L20.31 25.01Q21.97 23.66 22.48 21.41L22.48 21.41Q22.66 20.73 22.66 20.14L22.66 20.14Q22.66 18.84 21.89 17.92L21.89 17.92Q20.76 16.51 18.26 16.51L18.26 16.51L14.06 16.51Z M49.65 22L45.68 39.23Q45.61 39.50 45.61 39.71L45.61 39.71Q45.61 40.24 46.00 40.40L46.00 40.40Q47.09 40.83 47.09 41.47L47.09 41.47Q47.09 41.57 47.05 41.67L47.05 41.67Q46.89 42.39 46.07 42.39L46.07 42.39L41.33 42.39Q40.57 42.39 40.57 41.82L40.57 41.82L40.57 41.71L40.70 41.12Q40.37 41.24 39.46 41.57Q38.55 41.90 37.79 42.14L37.79 42.14Q35.78 42.76 33.75 42.96L33.75 42.96Q33.44 42.98 33.16 42.98L33.16 42.98Q31.33 42.98 29.96 41.75L29.96 41.75Q28.69 40.57 28.69 37.94L28.69 37.94Q28.69 36.14 29.26 33.64L29.26 33.64L30.88 26.57Q30.96 26.32 30.96 26.10L30.96 26.10Q30.96 25.57 30.55 25.42L30.55 25.42Q29.47 24.99 29.47 24.32L29.47 24.32Q29.47 24.23 29.51 24.13L29.51 24.13Q29.67 23.41 30.47 23.41L30.47 23.41Q31.72 23.35 33.02 23.02Q34.32 22.68 36.48 22L36.48 22L33.77 33.76Q33.36 35.54 33.36 36.84L33.36 36.84Q33.36 38.60 34.08 39.50L34.08 39.50Q34.82 40.44 36.19 40.44L36.19 40.44Q37.03 40.44 38.14 40.09L38.14 40.09Q38.59 39.95 39.31 39.71Q40.02 39.46 40.53 39.29L40.53 39.29Q40.63 39.25 40.87 39.17Q41.11 39.09 41.19 39.05L41.19 39.05L44.04 26.57Q44.12 26.32 44.12 26.10L44.12 26.10Q44.12 25.57 43.71 25.42L43.71 25.42Q42.64 24.99 42.64 24.32L42.64 24.32Q42.64 24.23 42.68 24.13L42.68 24.13Q42.83 23.41 43.63 23.41L43.63 23.41Q44.88 23.35 46.18 23.02Q47.48 22.68 49.65 22L49.65 22Z M63.95 41.71L64.12 40.95L59.12 42.64Q58.36 42.88 57.85 42.88L57.85 42.88L57.03 42.88Q54.02 42.72 52.36 40.42L52.36 40.42Q51.13 38.68 51.13 36.36L51.13 36.36Q51.13 35.67 51.23 34.95L51.23 34.95Q51.35 34.11 51.54 33.33L51.54 33.33Q51.78 32.31 52.13 31.34L52.13 31.34Q52.77 29.60 54.24 27.90L54.24 27.90Q54.98 27 56.50 26.00L56.50 26.00Q57.05 25.69 57.70 25.44L57.70 25.44Q59.43 24.83 61.11 24.26Q62.79 23.68 64.53 23.07L64.53 23.07Q64.98 22.94 65.37 22.94L65.37 22.94L65.49 22.94Q66.82 23.00 68.54 23.60L68.54 23.60Q68.57 23.62 68.59 23.62L68.59 23.62Q68.61 23.62 68.61 23.60L68.61 23.60Q68.61 23.52 68.22 23.13L68.22 23.13L69.55 17.37Q69.63 17.10 69.63 16.88L69.63 16.88Q69.63 16.36 69.22 16.20L69.22 16.20Q68.14 15.77 68.14 15.11L68.14 15.11Q68.14 15.01 68.18 14.91L68.18 14.91Q68.34 14.19 69.14 14.19L69.14 14.19Q70.39 14.13 71.69 13.81Q72.99 13.48 75.16 12.80L75.16 12.80L69.06 39.23Q68.98 39.50 68.98 39.71L68.98 39.71Q68.98 40.24 69.38 40.40L69.38 40.40Q70.47 40.83 70.47 41.47L70.47 41.47Q70.47 41.57 70.43 41.67L70.43 41.67Q70.27 42.39 69.45 42.39L69.45 42.39L64.71 42.39Q63.95 42.39 63.95 41.82L63.95 41.82L63.95 41.71ZM64.61 38.88L67.34 27.04Q66.80 26.45 65.75 25.91Q64.71 25.36 63.87 25.32L63.87 25.32L63.81 25.32Q63.52 25.32 63.18 25.44L63.18 25.44Q62.42 25.69 61.67 25.96Q60.92 26.22 60.16 26.47L60.16 26.47Q59.71 26.65 59.41 26.88L59.41 26.88Q57.97 28.13 57.17 29.89L57.17 29.89Q56.52 31.24 56.23 32.57L56.23 32.57Q56.13 33.00 56.07 33.43L56.07 33.43Q55.94 34.32 55.94 35.09L55.94 35.09Q55.94 36.69 56.50 37.82L56.50 37.82Q57.30 39.46 58.96 39.95L58.96 39.95Q59.57 40.14 60.23 40.14L60.23 40.14Q60.45 40.14 60.70 40.13L60.70 40.13Q61.05 40.09 61.66 39.89L61.66 39.89Q62.11 39.75 63.14 39.39Q64.18 39.03 64.61 38.88L64.61 38.88Z M88.50 37.72L88.52 37.72L91.00 27.06Q90.51 26.51 89.44 25.94Q88.38 25.36 87.52 25.32L87.52 25.32L87.46 25.32Q87.17 25.32 86.84 25.44L86.84 25.44Q86.07 25.69 85.32 25.96Q84.57 26.22 83.81 26.47L83.81 26.47Q83.36 26.65 83.07 26.88L83.07 26.88Q81.62 28.13 80.82 29.89L80.82 29.89Q80.18 31.24 79.88 32.57L79.88 32.57Q79.79 33.00 79.73 33.43L79.73 33.43Q79.59 34.32 79.59 35.09L79.59 35.09Q79.59 36.69 80.16 37.82L80.16 37.82Q80.96 39.46 82.62 39.95L82.62 39.95Q83.22 40.14 83.89 40.14L83.89 40.14Q84.10 40.14 84.36 40.13L84.36 40.13Q84.71 40.09 85.31 39.89L85.31 39.89Q85.76 39.75 86.79 39.40Q87.81 39.05 88.22 38.89L88.22 38.89L88.50 37.72ZM86.46 46.57L87.75 40.95L82.77 42.64Q82.01 42.88 81.50 42.88L81.50 42.88L80.68 42.88Q77.68 42.72 76.02 40.42L76.02 40.42Q74.79 38.68 74.79 36.36L74.79 36.36Q74.79 35.67 74.88 34.95L74.88 34.95Q75 34.11 75.20 33.33L75.20 33.33Q75.43 32.31 75.78 31.34L75.78 31.34Q76.43 29.60 77.89 27.90L77.89 27.90Q78.63 27 80.16 26.00L80.16 26.00Q80.70 25.69 81.35 25.44L81.35 25.44Q83.09 24.83 84.77 24.26Q86.45 23.68 88.18 23.07L88.18 23.07Q88.63 22.94 89.02 22.94L89.02 22.94L89.14 22.94Q90.47 23.00 92.19 23.60L92.19 23.60Q92.46 23.70 92.48 23.72L92.48 23.72Q92.77 23.86 93.34 24.07L93.34 24.07Q93.48 24.11 93.59 24.11L93.59 24.11Q93.73 24.11 93.87 24.03L93.87 24.03Q94.32 23.70 94.51 23.50L94.51 23.50Q94.77 23.21 95.18 23.21L95.18 23.21Q95.39 23.21 95.59 23.29L95.59 23.29Q96.19 23.54 96.19 23.97L96.19 23.97L96.19 24.07L91.23 45.57Q90.45 48.93 89.25 49.80Q88.05 50.67 86.15 51.32L86.15 51.32L80.29 53.33Q79.55 53.58 79.04 53.58L79.04 53.58Q78.52 53.58 78.20 53.56L78.20 53.56Q75.21 53.45 73.55 51.10L73.55 51.10Q72.71 49.87 72.40 47.92L72.40 47.92Q74.59 47.14 77.15 46.28L77.15 46.28Q77.32 47.74 77.70 48.50L77.70 48.50Q78.52 50.14 80.14 50.63L80.14 50.63Q80.74 50.81 81.39 50.81L81.39 50.81Q81.64 50.81 81.88 50.79L81.88 50.79Q82.25 50.75 82.79 50.59L82.79 50.59Q83.05 50.50 83.46 50.36Q83.87 50.22 84.30 50.07L84.30 50.07Q85.18 49.68 85.78 48.34Q86.39 47 86.46 46.57L86.46 46.57Z M103.98 42.88L103.98 42.88Q98.36 42.88 96.88 39.19L96.88 39.19Q96.23 37.61 96.23 35.83L96.23 35.83Q96.23 34.60 96.52 33.29L96.52 33.29Q96.78 32.23 97.21 31.12L97.21 31.12Q98.71 27.27 101.55 25.11Q104.39 22.94 108.42 22.94L108.42 22.94Q115.51 22.94 115.51 28.58L115.51 28.58Q115.51 29.81 115.18 31.32L115.18 31.32Q114.96 32.12 114.79 32.59Q114.63 33.05 113.50 33.05L113.50 33.05L101.54 33.05Q101.31 34.09 101.31 35.24L101.31 35.24Q101.31 36.98 101.99 38.25L101.99 38.25Q103.07 40.26 105.92 40.26L105.92 40.26Q106.64 40.26 107.58 40.07Q108.52 39.87 109.96 39.21L109.96 39.21Q111.31 38.54 111.84 38.54L111.84 38.54Q112.11 38.54 112.40 38.74L112.40 38.74Q112.50 38.93 112.50 39.07L112.50 39.07L112.50 39.19Q112.42 39.54 111.99 40.07L111.99 40.07Q111.64 40.57 111.44 40.75Q111.23 40.93 111.07 41.04L111.07 41.04Q109.39 42.23 107.53 42.56Q105.66 42.88 103.98 42.88ZM102.05 30.85L102.05 30.85L111.27 30.85Q111.54 29.68 111.54 28.58L111.54 28.58Q111.54 27.33 111.11 26.63L111.11 26.63Q110.35 25.40 108.03 25.40L108.03 25.40Q105.63 25.40 104.09 27.06Q102.56 28.72 102.05 30.85Z M118.22 37.06L120.80 25.91Q120.66 25.91 119.16 25.98L119.16 25.98L119.04 25.98Q118.24 25.98 118.24 25.32L118.24 25.32Q118.24 25.22 118.26 25.16L118.26 25.16L118.26 25.13Q118.40 24.60 119.02 24.32L119.02 24.32Q119.43 24.15 120.82 23.50L120.82 23.50Q121.15 23.33 121.48 23.21L121.48 23.21Q121.54 23.19 121.54 23.17L121.54 23.17Q121.54 23.15 121.43 23.15L121.43 23.15L122.13 20.14Q122.38 19.03 122.95 18.59Q123.52 18.15 125.18 17.43L125.18 17.43Q125.88 17.14 126.31 17.14L126.31 17.14Q127.15 17.14 127.15 17.84L127.15 17.84Q127.15 17.96 127.13 18.09L127.13 18.09L125.98 23.07L130.06 23.00L130.08 23.00Q130.78 23.00 130.78 23.64L130.78 23.64Q130.78 23.80 130.74 23.97L130.74 23.97Q130.66 24.27 130.49 24.68L130.49 24.68Q129.96 25.87 128.93 25.87L128.93 25.87L125.35 25.85L122.60 37.76Q122.48 38.25 122.48 38.64L122.48 38.64Q122.48 39.58 123.09 40.09L123.09 40.09Q124.00 40.87 125.21 41.04L125.21 41.04L124.86 42.37Q121.48 42.37 119.55 41.80L119.55 41.80Q117.95 41.34 117.95 39.21L117.95 39.21Q117.95 38.29 118.22 37.06L118.22 37.06Z"/></g>
</svg>
</g><g opacity="1" transform="rotate(0 263.4391 181.7214)">
<svg width="3" height="144" x="263.4391" y="181.7214" version="1.1" preserveAspectRatio="none" viewBox="0 0 3 144">
  <defs><rect x="0" y="0" width="3" height="144" rx="0px" ry="0px" id="id-tBXipXk0b1721199424704"></rect></defs><use class="atBXipXk0bfillColor shapeStroke-str" style="stroke-width:0;" xlink:href="#id-tBXipXk0b1721199424704"></use>
</svg>
</g><g opacity="1" transform="rotate(0 280.4391 317.7214)">
<svg width="148.5973" height="8" x="280.4391" y="317.7214" version="1.1" preserveAspectRatio="none" viewBox="-2.9297 -30.8008 742.9812 40">
  <g transform="matrix(1 0 0 1 0 0)" class="aD-YM9nyY4color"><path id="id-D-YM9nyY435" d="M17.19 0L17.95-3.36L20.43-3.36L19.71-10.04L8.50-10.04L4.77-3.36L7.42-3.36L6.68 0L-2.93 0L-2.17-3.36L0.39-3.36L15.23-29.61L21.54-29.61L24.63-3.36L27.56-3.36L26.80 0L17.19 0ZM17.87-26.84L10.37-13.40L19.34-13.40L17.87-26.84Z M31.76-16.88L32.56-20.23L36.70-20.23L37.52-23.81Q37.95-25.68 38.73-27.01Q39.51-28.34 40.58-29.18Q41.64-30.02 42.97-30.41Q44.30-30.80 45.84-30.80L45.84-30.80Q46.78-30.80 47.57-30.68Q48.36-30.57 49.00-30.39Q49.65-30.21 50.16-30.01Q50.66-29.80 51.01-29.61L51.01-29.61L49.00-26.60Q48.50-26.93 47.61-27.19Q46.72-27.44 45.68-27.44L45.68-27.44Q44.12-27.44 43.03-26.57Q41.93-25.70 41.44-23.59L41.44-23.59L40.66-20.23L46.17-20.23L45.37-16.88L39.90-16.88L33.92 9.20L29.96 9.20L35.92-16.88L31.76-16.88Z M48.40-16.88L49.20-20.23L53.34-20.23L54.16-23.81Q54.59-25.68 55.37-27.01Q56.15-28.34 57.22-29.18Q58.28-30.02 59.61-30.41Q60.94-30.80 62.48-30.80L62.48-30.80Q63.42-30.80 64.21-30.68Q65.00-30.57 65.64-30.39Q66.29-30.21 66.80-30.01Q67.30-29.80 67.65-29.61L67.65-29.61L65.64-26.60Q65.14-26.93 64.25-27.19Q63.36-27.44 62.32-27.44L62.32-27.44Q60.76-27.44 59.67-26.57Q58.57-25.70 58.08-23.59L58.08-23.59L57.30-20.23L62.81-20.23L62.01-16.88L56.54-16.88L50.56 9.20L46.60 9.20L52.56-16.88L48.40-16.88Z M64.02-8.77L64.02-8.77Q64.02-10.45 64.44-11.99Q64.86-13.54 65.63-14.88Q66.40-16.23 67.49-17.32Q68.57-18.42 69.88-19.20Q71.19-19.98 72.68-20.41Q74.18-20.84 75.78-20.84L75.78-20.84Q77.79-20.84 79.51-20.13Q81.23-19.41 82.48-18.17Q83.73-16.93 84.44-15.26Q85.15-13.59 85.15-11.68L85.15-11.68Q85.15-9.98 84.72-8.42Q84.29-6.86 83.52-5.51Q82.75-4.16 81.68-3.05Q80.60-1.93 79.28-1.15Q77.97-0.37 76.46 0.06Q74.96 0.49 73.34 0.49L73.34 0.49Q71.31 0.49 69.61-0.22Q67.91-0.94 66.66-2.19Q65.41-3.44 64.71-5.13Q64.02-6.82 64.02-8.77ZM68.10-9.04L68.10-9.04Q68.10-7.68 68.50-6.55Q68.90-5.43 69.63-4.64Q70.35-3.85 71.36-3.41Q72.38-2.97 73.59-2.97L73.59-2.97Q75.02-2.97 76.37-3.59Q77.73-4.22 78.77-5.33Q79.80-6.45 80.44-8.01Q81.07-9.57 81.07-11.45L81.07-11.45Q81.07-12.81 80.65-13.91Q80.23-15 79.49-15.78Q78.75-16.56 77.74-16.98Q76.74-17.40 75.54-17.40L75.54-17.40Q74.10-17.40 72.76-16.79Q71.42-16.17 70.39-15.07Q69.35-13.96 68.73-12.42Q68.10-10.88 68.10-9.04Z M107.48-20.12L106.19-14.65L102.22-14.65L102.79-17.03Q100.90-17.03 99.57-16.06Q98.24-15.10 97.38-13.52L97.38-13.52L95.04-3.36L98.40-3.36L97.63 0L90.31 0L94.22-16.88L90.35-16.88L91.15-20.23L98.79-20.23L98.14-17.46Q98.69-18.09 99.31-18.62Q99.94-19.16 100.63-19.55Q101.32-19.94 102.08-20.17Q102.83-20.39 103.59-20.39L103.59-20.39Q104.29-20.39 104.80-20.37Q105.31-20.35 105.89-20.30Q106.46-20.25 107.48-20.12L107.48-20.12Z M126.07-27.03L126.87-30.39L134.18-30.39L127.95-3.36L131.30-3.36L130.54 0L123.26 0L123.55-1.31Q122.44-0.55 121.22-0.08Q120.00 0.39 118.59 0.39L118.59 0.39Q116.85 0.39 115.35-0.27Q113.84-0.94 112.72-2.11Q111.60-3.28 110.95-4.87Q110.31-6.46 110.31-8.32L110.31-8.32Q110.31-11.02 111.27-13.30Q112.22-15.59 113.87-17.27Q115.52-18.95 117.72-19.89Q119.92-20.84 122.42-20.84L122.42-20.84Q123.98-20.84 125.33-20.39Q126.68-19.94 127.67-19.16L127.67-19.16L129.49-27.03L126.07-27.03ZM119.51-3.01L119.51-3.01Q120.74-3.01 122.06-3.55Q123.37-4.10 124.45-5.16L124.45-5.16L126.87-15.64Q126.15-16.48 125.00-16.94Q123.84-17.40 122.18-17.40L122.18-17.40Q120.72-17.40 119.30-16.79Q117.89-16.17 116.79-15.04Q115.70-13.91 115.03-12.29Q114.35-10.66 114.35-8.67L114.35-8.67Q114.35-7.36 114.73-6.32Q115.11-5.27 115.80-4.54Q116.48-3.81 117.43-3.41Q118.37-3.01 119.51-3.01Z M149.74 0L150.05-1.37Q148.75-0.49 147.43-0.07Q146.11 0.35 144.70 0.35L144.70 0.35Q143.04 0.35 141.60-0.29Q140.15-0.94 139.09-2.05Q138.02-3.16 137.41-4.68Q136.79-6.19 136.79-7.93L136.79-7.93Q136.79-10.76 137.79-13.13Q138.78-15.49 140.49-17.19Q142.20-18.89 144.48-19.82Q146.75-20.76 149.31-20.76L149.31-20.76Q150.78-20.76 152.07-20.32Q153.35-19.88 154.18-19.18L154.18-19.18L154.43-20.23L158.35-20.23L154.45-3.36L157.59-3.36L156.83 0L149.74 0ZM145.62-3.01L145.62-3.01Q146.34-3.01 147.09-3.18Q147.85-3.36 148.53-3.63Q149.21-3.91 149.82-4.27Q150.43-4.63 150.89-5.02L150.89-5.02L153.41-15.84Q152.91-16.48 151.83-16.94Q150.76-17.40 149.02-17.40L149.02-17.40Q147.51-17.40 146.05-16.79Q144.59-16.17 143.43-15.01Q142.28-13.85 141.56-12.16Q140.84-10.47 140.84-8.32L140.84-8.32Q140.84-7.07 141.19-6.08Q141.54-5.10 142.16-4.41Q142.79-3.73 143.68-3.37Q144.57-3.01 145.62-3.01Z M165.42-27.03L166.23-30.39L173.88-30.39L171.24-18.96Q173.86-20.76 176.67-20.76L176.67-20.76Q178.33-20.76 179.78-20.12Q181.23-19.47 182.29-18.36Q183.35-17.25 183.97-15.73Q184.58-14.22 184.58-12.48L184.58-12.48Q184.58-10.59 184.14-8.91Q183.69-7.23 182.87-5.80Q182.05-4.38 180.89-3.23Q179.74-2.09 178.35-1.30Q176.97-0.51 175.38-0.08Q173.78 0.35 172.06 0.35L172.06 0.35Q170.56 0.35 169.27-0.10Q167.98-0.55 167.16-1.25L167.16-1.25L166.87 0L162.96 0L169.17-27.03L165.42-27.03ZM175.76-17.40L175.76-17.40Q174.37-17.40 172.97-16.85Q171.58-16.29 170.40-15.31L170.40-15.31L167.92-4.59Q168.43-3.95 169.52-3.48Q170.60-3.01 172.36-3.01L172.36-3.01Q173.86-3.01 175.33-3.62Q176.79-4.24 177.95-5.40Q179.12-6.56 179.84-8.24Q180.56-9.92 180.56-12.07L180.56-12.07Q180.56-13.32 180.21-14.31Q179.86-15.29 179.22-15.98Q178.59-16.66 177.70-17.03Q176.81-17.40 175.76-17.40Z M191.30-27.03L192.10-30.39L199.95-30.39L193.70-3.36L197.06-3.36L196.30 0L189.00 0L195.21-27.03L191.30-27.03Z M222.26-9.43L206.71-9.43Q206.69-9.16 206.67-8.96Q206.65-8.77 206.65-8.59L206.65-8.59Q206.65-7.36 207.05-6.31Q207.45-5.25 208.17-4.48Q208.88-3.71 209.87-3.27Q210.85-2.83 212.02-2.83L212.02-2.83Q213.59-2.83 215.00-3.47Q216.42-4.10 217.38-5.31L217.38-5.31L220.27-3.20Q219.60-2.32 218.68-1.62Q217.77-0.92 216.65-0.42Q215.54 0.08 214.28 0.34Q213.02 0.61 211.71 0.61L211.71 0.61Q209.84 0.61 208.21-0.02Q206.58-0.64 205.35-1.84Q204.13-3.03 203.44-4.76Q202.75-6.48 202.75-8.67L202.75-8.67Q202.75-11.19 203.64-13.41Q204.52-15.63 206.10-17.28Q207.67-18.93 209.82-19.88Q211.97-20.84 214.47-20.84L214.47-20.84Q216.40-20.84 217.91-20.19Q219.43-19.53 220.48-18.46Q221.54-17.38 222.08-15.98Q222.63-14.57 222.63-13.09L222.63-13.09Q222.63-12.09 222.52-11.16Q222.41-10.23 222.26-9.43L222.26-9.43ZM213.94-17.52L213.94-17.52Q212.77-17.52 211.74-17.15Q210.72-16.78 209.88-16.11Q209.04-15.45 208.39-14.55Q207.75-13.65 207.34-12.60L207.34-12.60L218.86-12.60Q218.88-13.81 218.54-14.74Q218.20-15.66 217.54-16.28Q216.89-16.89 215.97-17.21Q215.05-17.52 213.94-17.52Z M241.40-26.23L242.20-29.61L263.68-29.61L261.73-21.15L257.69-21.15L258.88-26.23L248.33-26.23L246.16-16.76L254.87-16.76L254.03-13.40L245.40-13.40L243.10-3.36L253.53-3.36L254.72-8.48L258.80-8.48L256.85 0L235.64 0L236.40-3.36L239.01-3.36L244.29-26.23L241.40-26.23Z M266.96-27.03L267.76-30.39L275.62-30.39L269.37-3.36L272.73-3.36L271.96 0L264.66 0L270.87-27.03L266.96-27.03Z M297.92-9.43L282.37-9.43Q282.35-9.16 282.33-8.96Q282.31-8.77 282.31-8.59L282.31-8.59Q282.31-7.36 282.71-6.31Q283.11-5.25 283.83-4.48Q284.54-3.71 285.53-3.27Q286.51-2.83 287.69-2.83L287.69-2.83Q289.25-2.83 290.66-3.47Q292.08-4.10 293.04-5.31L293.04-5.31L295.93-3.20Q295.26-2.32 294.35-1.62Q293.43-0.92 292.31-0.42Q291.20 0.08 289.94 0.34Q288.68 0.61 287.37 0.61L287.37 0.61Q285.50 0.61 283.87-0.02Q282.24-0.64 281.02-1.84Q279.79-3.03 279.10-4.76Q278.41-6.48 278.41-8.67L278.41-8.67Q278.41-11.19 279.30-13.41Q280.19-15.63 281.76-17.28Q283.33-18.93 285.48-19.88Q287.63-20.84 290.13-20.84L290.13-20.84Q292.06-20.84 293.57-20.19Q295.09-19.53 296.14-18.46Q297.20-17.38 297.74-15.98Q298.29-14.57 298.29-13.09L298.29-13.09Q298.29-12.09 298.18-11.16Q298.08-10.23 297.92-9.43L297.92-9.43ZM289.60-17.52L289.60-17.52Q288.43-17.52 287.40-17.15Q286.38-16.78 285.54-16.11Q284.70-15.45 284.05-14.55Q283.41-13.65 283.00-12.60L283.00-12.60L294.52-12.60Q294.54-13.81 294.20-14.74Q293.86-15.66 293.20-16.28Q292.55-16.89 291.63-17.21Q290.71-17.52 289.60-17.52Z M315.13-1.25L315.13-1.25Q313.90-0.39 312.60-0.02Q311.30 0.35 309.79 0.35L309.79 0.35Q308.13 0.35 306.69-0.29Q305.24-0.94 304.18-2.05Q303.11-3.16 302.50-4.68Q301.88-6.19 301.88-7.93L301.88-7.93Q301.88-10.76 302.88-13.13Q303.88-15.49 305.58-17.19Q307.29-18.89 309.57-19.82Q311.84-20.76 314.40-20.76L314.40-20.76Q315.87-20.76 317.16-20.32Q318.45-19.88 319.27-19.18L319.27-19.18L319.52-20.23L323.49-20.23L318.84-0.23Q318.25 2.30 317.27 4.09Q316.30 5.88 314.89 7.01Q313.49 8.14 311.62 8.67Q309.75 9.20 307.39 9.20L307.39 9.20Q306.32 9.20 305.16 9.02Q304.01 8.85 302.91 8.49Q301.81 8.13 300.83 7.58Q299.85 7.03 299.11 6.29L299.11 6.29L301.63 3.44Q302.10 3.95 302.76 4.37Q303.43 4.79 304.23 5.10Q305.03 5.41 305.92 5.59Q306.81 5.76 307.72 5.76L307.72 5.76Q309.13 5.76 310.28 5.46Q311.43 5.16 312.34 4.40Q313.25 3.65 313.92 2.37Q314.60 1.09 315.13-1.25ZM310.71-3.01L310.71-3.01Q312.24-3.01 313.56-3.55Q314.89-4.10 316.00-5.04L316.00-5.04L318.50-15.82Q318.00-16.46 316.92-16.93Q315.85-17.40 314.11-17.40L314.11-17.40Q312.61-17.40 311.14-16.79Q309.68-16.17 308.52-15.01Q307.37-13.85 306.65-12.16Q305.93-10.47 305.93-8.32L305.93-8.32Q305.93-7.07 306.28-6.08Q306.63-5.10 307.25-4.41Q307.88-3.73 308.77-3.37Q309.66-3.01 310.71-3.01Z M340.03 0L340.34-1.37Q339.03-0.49 337.71-0.07Q336.39 0.35 334.99 0.35L334.99 0.35Q333.33 0.35 331.88-0.29Q330.44-0.94 329.37-2.05Q328.31-3.16 327.69-4.68Q327.08-6.19 327.08-7.93L327.08-7.93Q327.08-10.76 328.07-13.13Q329.07-15.49 330.78-17.19Q332.49-18.89 334.76-19.82Q337.04-20.76 339.60-20.76L339.60-20.76Q341.06-20.76 342.35-20.32Q343.64-19.88 344.46-19.18L344.46-19.18L344.71-20.23L348.64-20.23L344.73-3.36L347.88-3.36L347.12 0L340.03 0ZM335.91-3.01L335.91-3.01Q336.63-3.01 337.38-3.18Q338.13-3.36 338.82-3.63Q339.50-3.91 340.11-4.27Q340.71-4.63 341.18-5.02L341.18-5.02L343.70-15.84Q343.19-16.48 342.12-16.94Q341.04-17.40 339.30-17.40L339.30-17.40Q337.80-17.40 336.34-16.79Q334.87-16.17 333.72-15.01Q332.57-13.85 331.84-12.16Q331.12-10.47 331.12-8.32L331.12-8.32Q331.12-7.07 331.47-6.08Q331.82-5.10 332.45-4.41Q333.07-3.73 333.96-3.37Q334.85-3.01 335.91-3.01Z M354.46-16.88L355.26-20.23L362.90-20.23L362.41-18.16Q363.80-19.32 365.45-19.96Q367.10-20.61 368.93-20.61L368.93-20.61Q370.50-20.61 371.76-20.14Q373.01-19.67 373.82-18.71Q374.62-17.75 374.87-16.33Q375.12-14.90 374.69-13.01L374.69-13.01L372.47-3.36L375.34-3.36L374.58 0L367.74 0L370.65-12.52Q371.20-14.82 370.30-16.00Q369.40-17.17 367.25-17.17L367.25-17.17Q365.73-17.17 364.36-16.51Q363.00-15.86 361.76-14.69L361.76-14.69L358.39 0L354.42 0L358.33-16.88L354.46-16.88Z M397.10-14.28L397.10-14.28Q396.78-15.06 396.27-15.64Q395.75-16.23 395.08-16.62Q394.42-17.01 393.64-17.21Q392.86-17.40 392.02-17.40L392.02-17.40Q390.94-17.40 389.72-16.85Q388.50-16.29 387.46-15.21Q386.41-14.14 385.73-12.58Q385.05-11.02 385.05-9.00L385.05-9.00Q385.05-7.54 385.48-6.42Q385.90-5.29 386.63-4.53Q387.35-3.77 388.31-3.39Q389.26-3.01 390.34-3.01L390.34-3.01Q391.12-3.01 391.80-3.13Q392.49-3.26 393.10-3.56Q393.72-3.87 394.30-4.36Q394.89-4.84 395.46-5.57L395.46-5.57L398.29-3.44Q397.53-2.36 396.57-1.61Q395.61-0.86 394.56-0.39Q393.50 0.08 392.38 0.28Q391.26 0.49 390.16 0.49L390.16 0.49Q388.17 0.49 386.48-0.22Q384.79-0.94 383.57-2.19Q382.35-3.44 381.66-5.13Q380.96-6.82 380.96-8.77L380.96-8.77Q380.96-11.43 381.96-13.64Q382.96-15.86 384.58-17.46Q386.20-19.06 388.24-19.95Q390.28-20.84 392.37-20.84L392.37-20.84Q393.35-20.84 394.32-20.65Q395.30-20.47 396.20-20.07Q397.10-19.67 397.88-19.06Q398.66-18.46 399.28-17.64L399.28-17.64L401.73-17.64L401.18-14.28L397.10-14.28Z M423.83-9.43L408.29-9.43Q408.27-9.16 408.25-8.96Q408.23-8.77 408.23-8.59L408.23-8.59Q408.23-7.36 408.63-6.31Q409.03-5.25 409.74-4.48Q410.45-3.71 411.44-3.27Q412.43-2.83 413.60-2.83L413.60-2.83Q415.16-2.83 416.58-3.47Q417.99-4.10 418.95-5.31L418.95-5.31L421.84-3.20Q421.18-2.32 420.26-1.62Q419.34-0.92 418.23-0.42Q417.11 0.08 415.86 0.34Q414.60 0.61 413.29 0.61L413.29 0.61Q411.41 0.61 409.78-0.02Q408.15-0.64 406.93-1.84Q405.71-3.03 405.02-4.76Q404.32-6.48 404.32-8.67L404.32-8.67Q404.32-11.19 405.21-13.41Q406.10-15.63 407.67-17.28Q409.24-18.93 411.39-19.88Q413.54-20.84 416.04-20.84L416.04-20.84Q417.97-20.84 419.49-20.19Q421.00-19.53 422.06-18.46Q423.11-17.38 423.66-15.98Q424.20-14.57 424.20-13.09L424.20-13.09Q424.20-12.09 424.10-11.16Q423.99-10.23 423.83-9.43L423.83-9.43ZM415.51-17.52L415.51-17.52Q414.34-17.52 413.32-17.15Q412.29-16.78 411.45-16.11Q410.61-15.45 409.97-14.55Q409.32-13.65 408.91-12.60L408.91-12.60L420.44-12.60Q420.45-13.81 420.11-14.74Q419.77-15.66 419.12-16.28Q418.46-16.89 417.54-17.21Q416.63-17.52 415.51-17.52Z M438.23-16.88L439.03-20.23L443.17-20.23L443.99-23.81Q444.42-25.68 445.20-27.01Q445.98-28.34 447.04-29.18Q448.11-30.02 449.44-30.41Q450.77-30.80 452.31-30.80L452.31-30.80Q453.25-30.80 454.04-30.68Q454.83-30.57 455.47-30.39Q456.12-30.21 456.63-30.01Q457.13-29.80 457.48-29.61L457.48-29.61L455.47-26.60Q454.96-26.93 454.08-27.19Q453.19-27.44 452.15-27.44L452.15-27.44Q450.59-27.44 449.50-26.57Q448.40-25.70 447.91-23.59L447.91-23.59L447.13-20.23L452.64-20.23L451.84-16.88L446.37-16.88L440.39 9.20L436.43 9.20L442.39-16.88L438.23-16.88Z M453.85-8.77L453.85-8.77Q453.85-10.45 454.27-11.99Q454.69-13.54 455.46-14.88Q456.23-16.23 457.32-17.32Q458.40-18.42 459.71-19.20Q461.02-19.98 462.51-20.41Q464.01-20.84 465.61-20.84L465.61-20.84Q467.62-20.84 469.34-20.13Q471.06-19.41 472.31-18.17Q473.56-16.93 474.27-15.26Q474.98-13.59 474.98-11.68L474.98-11.68Q474.98-9.98 474.55-8.42Q474.12-6.86 473.35-5.51Q472.58-4.16 471.51-3.05Q470.43-1.93 469.11-1.15Q467.80-0.37 466.29 0.06Q464.79 0.49 463.17 0.49L463.17 0.49Q461.14 0.49 459.44-0.22Q457.74-0.94 456.49-2.19Q455.24-3.44 454.54-5.13Q453.85-6.82 453.85-8.77ZM457.93-9.04L457.93-9.04Q457.93-7.68 458.33-6.55Q458.73-5.43 459.46-4.64Q460.18-3.85 461.19-3.41Q462.21-2.97 463.42-2.97L463.42-2.97Q464.85-2.97 466.20-3.59Q467.56-4.22 468.60-5.33Q469.63-6.45 470.27-8.01Q470.90-9.57 470.90-11.45L470.90-11.45Q470.90-12.81 470.48-13.91Q470.06-15 469.32-15.78Q468.58-16.56 467.57-16.98Q466.57-17.40 465.37-17.40L465.37-17.40Q463.93-17.40 462.59-16.79Q461.25-16.17 460.22-15.07Q459.18-13.96 458.56-12.42Q457.93-10.88 457.93-9.04Z M497.31-20.12L496.02-14.65L492.05-14.65L492.62-17.03Q490.73-17.03 489.40-16.06Q488.07-15.10 487.21-13.52L487.21-13.52L484.87-3.36L488.23-3.36L487.46 0L480.14 0L484.05-16.88L480.18-16.88L480.98-20.23L488.62-20.23L487.97-17.46Q488.52-18.09 489.14-18.62Q489.77-19.16 490.46-19.55Q491.15-19.94 491.91-20.17Q492.66-20.39 493.42-20.39L493.42-20.39Q494.12-20.39 494.63-20.37Q495.14-20.35 495.72-20.30Q496.29-20.25 497.31-20.12L497.31-20.12Z M515.90-26.23L516.70-29.61L538.18-29.61L536.23-21.15L532.19-21.15L533.38-26.23L522.83-26.23L520.66-16.76L529.38-16.76L528.54-13.40L519.90-13.40L517.60-3.36L528.03-3.36L529.22-8.48L533.30-8.48L531.35 0L510.14 0L510.90-3.36L513.52-3.36L518.79-26.23L515.90-26.23Z M538.96-16.88L539.75-20.23L547.15-20.23L546.35-16.88L544.80-16.88L546.02-4.39L553.96-16.88L552.32-16.88L553.13-20.23L560.51-20.23L559.71-16.88L558.16-16.88L546.56 0.31L543.13 0.31L540.86-16.88L538.96-16.88Z M582.23-9.43L566.68-9.43Q566.66-9.16 566.64-8.96Q566.62-8.77 566.62-8.59L566.62-8.59Q566.62-7.36 567.02-6.31Q567.42-5.25 568.13-4.48Q568.85-3.71 569.83-3.27Q570.82-2.83 571.99-2.83L571.99-2.83Q573.55-2.83 574.97-3.47Q576.39-4.10 577.34-5.31L577.34-5.31L580.23-3.20Q579.57-2.32 578.65-1.62Q577.73-0.92 576.62-0.42Q575.51 0.08 574.25 0.34Q572.99 0.61 571.68 0.61L571.68 0.61Q569.80 0.61 568.17-0.02Q566.54-0.64 565.32-1.84Q564.10-3.03 563.41-4.76Q562.71-6.48 562.71-8.67L562.71-8.67Q562.71-11.19 563.60-13.41Q564.49-15.63 566.06-17.28Q567.64-18.93 569.78-19.88Q571.93-20.84 574.43-20.84L574.43-20.84Q576.37-20.84 577.88-20.19Q579.39-19.53 580.45-18.46Q581.50-17.38 582.05-15.98Q582.60-14.57 582.60-13.09L582.60-13.09Q582.60-12.09 582.49-11.16Q582.38-10.23 582.23-9.43L582.23-9.43ZM573.91-17.52L573.91-17.52Q572.73-17.52 571.71-17.15Q570.68-16.78 569.84-16.11Q569.00-15.45 568.36-14.55Q567.71-13.65 567.30-12.60L567.30-12.60L578.83-12.60Q578.85-13.81 578.51-14.74Q578.16-15.66 577.51-16.28Q576.85-16.89 575.94-17.21Q575.02-17.52 573.91-17.52Z M604.14-20.12L602.85-14.65L598.89-14.65L599.45-17.03Q597.56-17.03 596.23-16.06Q594.90-15.10 594.04-13.52L594.04-13.52L591.70-3.36L595.06-3.36L594.30 0L586.97 0L590.88-16.88L587.01-16.88L587.81-20.23L595.45-20.23L594.80-17.46Q595.35-18.09 595.98-18.62Q596.60-19.16 597.29-19.55Q597.99-19.94 598.74-20.17Q599.49-20.39 600.25-20.39L600.25-20.39Q600.96-20.39 601.46-20.37Q601.97-20.35 602.55-20.30Q603.12-20.25 604.14-20.12L604.14-20.12Z M607.60-16.88L608.40-20.23L615.80-20.23L615.00-16.88L613.45-16.88L614.65-4.39L622.61-16.88L620.95-16.88L621.76-20.23L629.16-20.23L628.36-16.88L626.66-16.88L612.19 5.84L614.16 5.84L613.32 9.20L605.31 9.20L606.15 5.84L608.12 5.84L611.74 0.18L609.51-16.88L607.60-16.88Z M660.07-21.84L660.15-22.21Q660.39-23.24 660.06-24.04Q659.74-24.84 659.04-25.40Q658.34-25.96 657.34-26.24Q656.34-26.52 655.23-26.52L655.23-26.52Q653.61-26.52 652.33-26.09Q651.05-25.66 650.17-24.92Q649.29-24.18 648.82-23.19Q648.36-22.21 648.36-21.11L648.36-21.11Q648.36-20.14 648.73-19.53Q649.10-18.93 649.66-18.54Q650.23-18.14 650.92-17.91Q651.62-17.68 652.26-17.44L652.26-17.44L655.91-16.11Q657.32-15.64 658.38-15Q659.43-14.36 660.13-13.51Q660.84-12.66 661.19-11.57Q661.54-10.49 661.54-9.12L661.54-9.12Q661.54-6.95 660.70-5.16Q659.86-3.36 658.35-2.08Q656.83-0.80 654.70-0.10Q652.57 0.61 650.00 0.61L650.00 0.61Q647.67 0.61 646.06 0.11Q644.45-0.39 643.41-1.24Q642.38-2.09 641.86-3.18Q641.34-4.28 641.21-5.49L641.21-5.49L639.35-5.49L640.11-8.59L645.43-8.59L645.07-7.15Q644.80-5.04 646.30-4.00Q647.81-2.97 650.66-2.97L650.66-2.97Q652.13-2.97 653.36-3.38Q654.59-3.79 655.47-4.52Q656.36-5.25 656.87-6.28Q657.38-7.30 657.38-8.52L657.38-8.52Q657.38-9.45 657.05-10.14Q656.71-10.82 656.14-11.32Q655.56-11.82 654.79-12.18Q654.02-12.54 653.14-12.83L653.14-12.83L649.74-13.93Q647.09-14.77 645.72-16.43Q644.35-18.09 644.35-20.68L644.35-20.68Q644.35-22.68 645.11-24.38Q645.88-26.09 647.33-27.35Q648.79-28.61 650.87-29.33Q652.95-30.04 655.58-30.04L655.58-30.04Q657.24-30.04 658.63-29.67Q660.02-29.30 661.08-28.63Q662.14-27.97 662.88-27.03Q663.61-26.09 663.94-24.96L663.94-24.96L665.91-24.96L665.15-21.84L660.07-21.84Z M667.65-16.88L668.45-20.23L671.83-20.23L673.02-25.08L677.14-26.76L675.60-20.23L679.86-20.23L679.06-16.88L674.80-16.88L672.22-5.96Q672.12-5.57 672.04-5.17Q671.95-4.77 671.95-4.32L671.95-4.32Q671.95-3.44 672.43-3.08Q672.91-2.71 673.94-2.71L673.94-2.71Q675.05-2.71 676.62-3.36L676.62-3.36L676.95-0.57Q675.91-0.08 674.96 0.21Q674.00 0.49 672.83 0.49L672.83 0.49Q671.60 0.49 670.58 0.19Q669.57-0.12 668.90-0.81Q668.24-1.50 668.02-2.63Q667.81-3.75 668.18-5.39L668.18-5.39L670.99-16.88L667.65-16.88Z M682.90-16.88L683.71-20.23L691.11-20.23L690.31-16.88L688.76-16.88L689.96-4.39L697.92-16.88L696.26-16.88L697.06-20.23L704.47-20.23L703.67-16.88L701.97-16.88L687.49 5.84L689.47 5.84L688.63 9.20L680.62 9.20L681.46 5.84L683.43 5.84L687.05 0.18L684.82-16.88L682.90-16.88Z M708.72-27.03L709.52-30.39L717.38-30.39L711.13-3.36L714.49-3.36L713.72 0L706.42 0L712.63-27.03L708.72-27.03Z M739.68-9.43L724.13-9.43Q724.11-9.16 724.09-8.96Q724.07-8.77 724.07-8.59L724.07-8.59Q724.07-7.36 724.48-6.31Q724.88-5.25 725.59-4.48Q726.30-3.71 727.29-3.27Q728.27-2.83 729.45-2.83L729.45-2.83Q731.01-2.83 732.42-3.47Q733.84-4.10 734.80-5.31L734.80-5.31L737.69-3.20Q737.02-2.32 736.11-1.62Q735.19-0.92 734.07-0.42Q732.96 0.08 731.70 0.34Q730.44 0.61 729.13 0.61L729.13 0.61Q727.26 0.61 725.63-0.02Q724.00-0.64 722.78-1.84Q721.56-3.03 720.86-4.76Q720.17-6.48 720.17-8.67L720.17-8.67Q720.17-11.19 721.06-13.41Q721.95-15.63 723.52-17.28Q725.09-18.93 727.24-19.88Q729.39-20.84 731.89-20.84L731.89-20.84Q733.82-20.84 735.33-20.19Q736.85-19.53 737.90-18.46Q738.96-17.38 739.50-15.98Q740.05-14.57 740.05-13.09L740.05-13.09Q740.05-12.09 739.94-11.16Q739.84-10.23 739.68-9.43L739.68-9.43ZM731.36-17.52L731.36-17.52Q730.19-17.52 729.16-17.15Q728.14-16.78 727.30-16.11Q726.46-15.45 725.81-14.55Q725.17-13.65 724.76-12.60L724.76-12.60L736.28-12.60Q736.30-13.81 735.96-14.74Q735.62-15.66 734.96-16.28Q734.31-16.89 733.39-17.21Q732.47-17.52 731.36-17.52Z"/></g>
</svg>
</g></svg></svg>