<svg version="1.1" preserveAspectRatio="none" xmlns="http://www.w3.org/2000/svg" width="500" height="500" viewBox="0 0 500 500"><rect width="100%" height="100%" fill="#FFFFFF" fill-opacity="1"/><svg viewBox="49.2204 108.9073 371.4596 262.5" width="333" height="235.32168774208552" x="83.5px" y="132.3392px" xmlns="http://www.w3.org/2000/svg" xmlns:xlink="http://www.w3.org/1999/xlink" preserveAspectRatio="none"><defs></defs><style>.companyName {fill:#285380;fill-opacity:1;}.icon3 {fill:#E7A0AE;fill-opacity:1;}.icon3-str {stroke:#E7A0AE;stroke-opacity:1;}.shape {fill:#F9E9ED;fill-opacity:1;}.text {fill:#285380;fill-opacity:1;}</style><g opacity="1" transform="rotate(0 88.5195 108.9073)">
<svg width="292.8614" height="262.5" x="88.5195" y="108.9073" version="1.1" preserveAspectRatio="none" viewBox="5.976081848144531 15.80335807800293 188.02392578125 168.53155517578125">
  <g transform="matrix(1 0 0 1 0 0)"><g><path d="M91.052 173.189C119.033 208.059 194 154.166 194 107.109 194 72.067 160 19 113.041 16 71.147 13.324 9.093 38.026 6.094 86.084S58 132 91.052 173.189z" data-color="1" class="shape"></path></g></g>
</svg>
</g><g opacity="1" transform="rotate(0 129.5266 153.6573)">
<svg width="210.8471" height="140" x="129.5266" y="153.6573" version="1.1" preserveAspectRatio="none" viewBox="-1.32 -31.8 121.08 80.39999999999999">
  <g transform="matrix(1 0 0 1 0 0)" class="companyName"><path id="id-D6z1nYkh10" d="M47.96-28.32Q46.64-24.88 45.40-19.12L45.40-19.12L44.52-19.12Q44.76-20.68 44.76-21.88L44.76-21.88Q44.76-23.80 44.12-25.04L44.12-25.04Q43.40-26.52 41.98-27.34Q40.56-28.16 38.88-28.16L38.88-28.16Q35.56-28.16 32.46-25.04Q29.36-21.92 27.44-17.18Q25.52-12.44 25.52-8L25.52-8Q25.52-4.16 27.04-2.16Q28.56-0.16 31.24-0.16L31.24-0.16Q33.00-0.16 34.96-0.98Q36.92-1.80 38.36-3.28L38.36-3.28Q39.40-4.32 40.16-5.70Q40.92-7.08 41.96-9.60L41.96-9.60L42.84-9.60Q40.96-2.68 40.48 0L40.48 0L39.60 0Q39.72-0.84 39.72-1.36L39.72-1.36Q39.72-2.40 39.24-2.40L39.24-2.40Q38.96-2.40 38.40-2.04L38.40-2.04Q36.32-0.68 34.76-0.06Q33.20 0.56 30.84 0.56L30.84 0.56Q26.40 0.56 23.96-1.84Q21.52-4.24 21.52-8.84L21.52-8.84Q21.52-13.44 23.82-18.12Q26.12-22.80 30.14-25.84Q34.16-28.88 38.96-28.88L38.96-28.88Q41.28-28.88 42.50-28.22Q43.72-27.56 44.92-26.28L44.92-26.28Q45.20-25.92 45.52-25.92L45.52-25.92Q45.88-25.92 46.26-26.50Q46.64-27.08 47.12-28.32L47.12-28.32L47.96-28.32Z M64.96-6.48L65.72-6.48L64.72-3.56Q63.28 0.56 59.88 0.56L59.88 0.56Q57.08 0.56 57.08-1.92L57.08-1.92Q57.08-3.12 57.72-5.04L57.72-5.04L61.52-16.48Q61.92-17.60 61.92-18.48L61.92-18.48Q61.92-19.84 60.64-19.84L60.64-19.84Q59.16-19.84 57.46-17.98Q55.76-16.12 54.04-12.76Q52.32-9.40 50.84-4.96L50.84-4.96L49.40 0L45.92 0L53.84-26.68Q54.04-27.36 54.04-27.76L54.04-27.76Q54.04-28.56 53.40-28.94Q52.76-29.32 51.28-29.32L51.28-29.32L51.52-30.16Q55.68-30.20 58.72-31.80L58.72-31.80L52.92-11.96Q55.08-16.84 57.24-18.98Q59.40-21.12 61.96-21.12L61.96-21.12Q65.20-21.12 65.20-18.08L65.20-18.08Q65.20-16.80 64.60-15.08L64.60-15.08L60.72-3.40Q60.40-2.44 60.40-1.88L60.40-1.88Q60.40-0.92 61.36-0.92L61.36-0.92Q62.16-0.92 62.90-1.82Q63.64-2.72 64.44-5L64.44-5L64.96-6.48Z M75.24-27.32Q75.24-28.52 76.14-29.46Q77.04-30.40 78.20-30.40L78.20-30.40Q79.12-30.40 79.68-29.80Q80.24-29.20 80.24-28.32L80.24-28.32Q80.24-27.12 79.32-26.20Q78.40-25.28 77.24-25.28L77.24-25.28Q76.36-25.28 75.80-25.86Q75.24-26.44 75.24-27.32L75.24-27.32ZM74.04-17.16Q74.36-18.12 74.36-18.64L74.36-18.64Q74.36-19.64 73.48-19.64L73.48-19.64Q72.56-19.64 71.84-18.68Q71.12-17.72 70.32-15.56L70.32-15.56L69.76-14.08L69-14.08L70.04-17Q70.84-19.28 72.18-20.20Q73.52-21.12 75-21.12L75-21.12Q77.64-21.12 77.64-18.60L77.64-18.60Q77.64-17.28 77-15.52L77-15.52L72.72-3.40Q72.40-2.44 72.40-1.92L72.40-1.92Q72.40-0.92 73.36-0.92L73.36-0.92Q74.20-0.92 74.92-1.84Q75.64-2.76 76.48-5L76.48-5L77.04-6.48L77.80-6.48L76.76-3.56Q75.96-1.36 74.66-0.40Q73.36 0.56 71.84 0.56L71.84 0.56Q69.04 0.56 69.04-1.88L69.04-1.88Q69.04-3.04 69.76-5.04L69.76-5.04L74.04-17.16Z M92.72-20.32Q90.72-20.32 88.74-18.16Q86.76-16 85.50-12.44Q84.24-8.88 84.24-4.96L84.24-4.96Q84.24-3 84.98-2.06Q85.72-1.12 87.04-1.12L87.04-1.12Q90.32-1.12 93.04-5.12L93.04-5.12L93.84-4.80Q92.56-2.60 90.38-1.02Q88.20 0.56 85.80 0.56L85.80 0.56Q83.36 0.56 81.94-0.94Q80.52-2.44 80.52-5.32L80.52-5.32Q80.52-8.56 82.04-12.28Q83.56-16 86.32-18.56Q89.08-21.12 92.60-21.12L92.60-21.12Q94.44-21.12 95.68-20.20Q96.92-19.28 96.92-17.72L96.92-17.72Q96.92-16.48 96.12-15.50Q95.32-14.52 94.08-14.52L94.08-14.52Q93.28-14.52 92.86-14.96Q92.44-15.40 92.44-16.08L92.44-16.08Q92.44-17.20 93.32-18.02Q94.20-18.84 95.44-19.08L95.44-19.08Q94.60-20.32 92.72-20.32L92.72-20.32Z M15.80 25.84Q19.28 26.40 20.82 28.12Q22.36 29.84 22.36 32.36L22.36 32.36Q22.36 35.08 20.64 36.98Q18.92 38.88 16.18 39.84Q13.44 40.80 10.44 40.80L10.44 40.80L7.52 40.76Q5.12 40.68 3.56 40.68L3.56 40.68Q0.36 40.68-1.32 40.80L-1.32 40.80L-1.16 40Q0.28 39.92 1 39.68Q1.72 39.44 2.14 38.76Q2.56 38.08 2.96 36.56L2.96 36.56L8.24 16.72Q8.56 15.52 8.56 14.80L8.56 14.80Q8.56 14.04 7.98 13.68Q7.40 13.32 5.88 13.28L5.88 13.28L6.08 12.48Q7.68 12.60 10.84 12.60L10.84 12.60Q12.64 12.60 13.56 12.56L13.56 12.56L16.48 12.52Q20.20 12.52 22.10 13.88Q24 15.24 24 17.64L24 17.64Q24 20.52 21.62 22.64Q19.24 24.76 15.80 25.84L15.80 25.84ZM12.08 16.12L9.52 25.76L12.16 25.76Q14.52 25.76 16.30 24.68Q18.08 23.60 19.06 21.80Q20.04 20.00 20.04 17.92L20.04 17.92Q20.04 15.56 19 14.42Q17.96 13.28 15.72 13.28L15.72 13.28Q13.96 13.28 13.24 13.84Q12.52 14.40 12.08 16.12L12.08 16.12ZM8.72 39.88Q13.80 39.88 16.08 37.82Q18.36 35.76 18.36 31.76L18.36 31.76Q18.36 26.44 12.64 26.44L12.64 26.44L9.36 26.44L6.68 36.56Q6.32 38 6.32 38.52L6.32 38.52Q6.32 39.24 6.86 39.56Q7.40 39.88 8.72 39.88L8.72 39.88Z M44.72 35.80L45.24 34.32L46 34.32L45 37.24Q43.56 41.36 40.16 41.36L40.16 41.36Q39.52 41.36 38.96 41.08Q38.40 40.80 38.12 40.28L38.12 40.28Q37.88 39.72 37.88 39.04L37.88 39.04Q37.88 38 38.44 35.76L38.44 35.76L39.68 30.76Q37.36 36.48 35.16 38.92Q32.96 41.36 30.36 41.36L30.36 41.36Q27 41.36 27 38.28L27 38.28Q27 37 27.56 35.32L27.56 35.32L31.44 23.64Q31.76 22.68 31.76 22.16L31.76 22.16Q31.76 21.16 30.80 21.16L30.80 21.16Q30 21.16 29.26 22.06Q28.52 22.96 27.72 25.24L27.72 25.24L27.20 26.72L26.44 26.72L27.44 23.80Q28.88 19.68 32.28 19.68L32.28 19.68Q35.08 19.68 35.08 22.16L35.08 22.16Q35.08 23.36 34.44 25.28L34.44 25.28L30.64 36.72Q30.24 37.92 30.24 38.72L30.24 38.72Q30.24 40.08 31.52 40.08L31.52 40.08Q33.08 40.08 34.96 37.78Q36.84 35.48 38.68 31.40Q40.52 27.32 41.88 22.20L41.88 22.20L42.36 20.24Q44.64 20.16 46 19.68L46 19.68L41.04 37.40Q40.76 38.44 40.76 38.96L40.76 38.96Q40.76 39.88 41.60 39.88L41.60 39.88Q42.48 39.88 43.22 38.94Q43.96 38 44.72 35.80L44.72 35.80Z M66.36 35.80L66.84 34.32L67.60 34.32L66.68 37.24Q66 39.44 64.72 40.40Q63.44 41.36 62.04 41.36L62.04 41.36Q60.80 41.36 60.16 40.72Q59.52 40.08 59.52 38.88L59.52 38.88Q59.52 37.76 60.04 35.76L60.04 35.76L60.60 33.72Q58.72 37.76 56.76 39.56Q54.80 41.36 52.60 41.36L52.60 41.36Q50.64 41.36 49.54 40.04Q48.44 38.72 48.44 36.08L48.44 36.08Q48.44 32.76 50.18 28.88Q51.92 25.00 54.90 22.34Q57.88 19.68 61.36 19.68L61.36 19.68Q62.16 19.68 62.84 20.20Q63.52 20.72 63.80 21.60L63.80 21.60L65.80 14.12Q65.96 13.60 65.96 13.04L65.96 13.04Q65.96 12.24 65.34 11.86Q64.72 11.48 63.24 11.48L63.24 11.48L63.48 10.64Q65.60 10.60 67.30 10.20Q69 9.80 70.56 9.00L70.56 9.00L62.72 37.40Q62.48 38.36 62.48 38.76L62.48 38.76Q62.48 39.88 63.44 39.88L63.44 39.88Q64.24 39.88 64.92 38.96Q65.60 38.04 66.36 35.80L66.36 35.80ZM53.76 40.08Q54.96 40.08 56.52 38.40Q58.08 36.72 59.60 33.90Q61.12 31.08 62.12 27.88L62.12 27.88L63.52 22.64Q63.28 21.60 62.70 21.10Q62.12 20.60 61.40 20.60L61.40 20.60Q58.96 20.60 56.80 23.18Q54.64 25.76 53.32 29.56Q52 33.36 52 36.60L52 36.60Q52 40.08 53.76 40.08L53.76 40.08Z M87.36 18.04Q88.44 18.04 89.06 18.64Q89.68 19.24 89.68 20.44L89.68 20.44Q89.68 21.48 89.16 22.04Q88.64 22.60 87.92 22.60L87.92 22.60Q87.16 22.60 86.58 22.08Q86 21.56 86 20.56L86 20.56Q86 19.84 86.36 18.88L86.36 18.88Q84.80 19.56 84.08 20.56L84.08 20.56Q85.76 21.72 85.76 24.16L85.76 24.16Q85.76 25.92 84.90 27.60Q84.04 29.28 82.46 30.50Q80.88 31.72 78.80 32.12L78.80 32.12L77.48 32.84Q75.60 33.84 74.74 34.44Q73.88 35.04 73.88 35.60L73.88 35.60Q73.88 36.04 74.44 36.36Q75 36.68 76.28 37L76.28 37L79.20 37.76Q81.48 38.36 82.60 39.08Q83.72 39.80 83.72 41.24L83.72 41.24Q83.72 42.76 82.46 44.48Q81.20 46.20 78.58 47.40Q75.96 48.60 72.12 48.60L72.12 48.60Q69.04 48.60 67.42 47.80Q65.80 47 65.80 45.60L65.80 45.60Q65.80 44.24 67.28 42.86Q68.76 41.48 71.48 40.68L71.48 40.68L71.76 41.28Q69.16 42.64 69.16 44.92L69.16 44.92Q69.16 46.44 70.22 47.18Q71.28 47.92 73.04 47.92L73.04 47.92Q74.80 47.92 76.68 47.20Q78.56 46.48 79.78 45.30Q81 44.12 81 42.84L81 42.84Q81 42.28 80.68 42.08Q80.36 41.88 79.36 41.64L79.36 41.64L73.24 40.08Q71.08 39.52 71.08 37.68L71.08 37.68Q71.08 36.44 72.38 35.22Q73.68 34 77.28 32.28L77.28 32.28L77 32.28Q74.68 32.28 73.24 31.18Q71.80 30.08 71.80 27.92L71.80 27.92Q71.80 26.24 72.68 24.32Q73.56 22.40 75.52 21.04Q77.48 19.68 80.48 19.68L80.48 19.68Q82.20 19.68 83.36 20.20L83.36 20.20Q84.12 19.24 85.20 18.64Q86.28 18.04 87.36 18.04L87.36 18.04ZM77.40 31.56Q79.24 31.56 80.32 30.14Q81.40 28.72 81.80 26.84Q82.20 24.96 82.20 23.36L82.20 23.36Q82.20 21.88 81.80 21.14Q81.40 20.40 80.32 20.40L80.32 20.40Q78.40 20.40 77.26 22.10Q76.12 23.80 75.70 25.84Q75.28 27.88 75.28 29.16L75.28 29.16Q75.28 31.56 77.40 31.56L77.40 31.56Z M104.24 22.32Q104.24 25.56 100.60 28.00Q96.96 30.44 92.28 31.96L92.28 31.96Q91.84 33.96 91.84 35.84L91.84 35.84Q91.84 39.68 94.60 39.68L94.60 39.68Q98.04 39.68 100.76 35.68L100.76 35.68L101.40 36Q100.12 38.20 97.94 39.78Q95.76 41.36 93.36 41.36L93.36 41.36Q90.88 41.36 89.48 39.92Q88.08 38.48 88.08 35.72L88.08 35.72Q88.08 32.68 89.86 28.86Q91.64 25.04 94.68 22.36Q97.72 19.68 101.28 19.68L101.28 19.68Q102.56 19.68 103.40 20.36Q104.24 21.04 104.24 22.32L104.24 22.32ZM100.40 20.44Q99.12 20.44 97.54 21.94Q95.96 23.44 94.58 25.92Q93.20 28.40 92.48 31.20L92.48 31.20Q96.28 29.88 97.92 28.64L97.92 28.64Q99.40 27.48 100.22 25.82Q101.04 24.16 101.04 22.24L101.04 22.24Q101.04 21.16 100.88 20.80Q100.72 20.44 100.40 20.44L100.40 20.44Z M114.24 21.04L109.60 37.40Q109.48 37.88 109.48 38.28L109.48 38.28Q109.48 39.08 109.96 39.48Q110.44 39.88 111.20 39.88L111.20 39.88Q112.20 39.88 113.06 39.02Q113.92 38.16 114.76 35.88L114.76 35.88L115.32 34.32L116.08 34.32L115.24 36.84Q114.40 39.32 113.06 40.34Q111.72 41.36 109.76 41.36L109.76 41.36Q107.96 41.36 107.08 40.48Q106.20 39.60 106.20 38.04L106.20 38.04Q106.20 37 106.56 35.76L106.56 35.76L110.80 21.04L107.20 21.04L107.40 20.24L111.00 20.24L112.76 14.16Q114.92 14.08 116.36 13.60L116.36 13.60L114.48 20.24L119.76 20.24L119.64 21.04L114.24 21.04Z"/></g>
</svg>
</g><g opacity="1" transform="rotate(0 49.2204 317.6573)">
<svg width="371.4596" height="11" x="49.2204" y="317.6573" version="1.1" preserveAspectRatio="none" viewBox="-0.04 -28.32 966.5600000000001 28.64">
  <g transform="matrix(1 0 0 1 0 0)" class="text"><path id="id-D-YM9nyY435" d="M25.12 0L22.04-7L7.16-7L4.08 0L-0.04 0L12.64-28L16.60-28L29.32 0L25.12 0ZM8.56-10.20L20.64-10.20L14.60-23.92L8.56-10.20Z M55.24-24.52L39.48-24.52L39.48-14.76L53.52-14.76L53.52-11.32L39.48-11.32L39.48 0L35.48 0L35.48-28L55.24-28L55.24-24.52Z M82.64-24.52L66.88-24.52L66.88-14.76L80.92-14.76L80.92-11.32L66.88-11.32L66.88 0L62.88 0L62.88-28L82.64-28L82.64-24.52Z M102.60 0.32Q98.36 0.32 94.96-1.54Q91.56-3.40 89.62-6.68Q87.68-9.96 87.68-14L87.68-14Q87.68-18.04 89.62-21.32Q91.56-24.60 94.96-26.46Q98.36-28.32 102.60-28.32L102.60-28.32Q106.80-28.32 110.20-26.46Q113.60-24.60 115.52-21.34Q117.44-18.08 117.44-14L117.44-14Q117.44-9.92 115.52-6.66Q113.60-3.40 110.20-1.54Q106.80 0.32 102.60 0.32L102.60 0.32ZM102.60-3.24Q105.68-3.24 108.14-4.64Q110.60-6.04 112.02-8.50Q113.44-10.96 113.44-14L113.44-14Q113.44-17.04 112.02-19.50Q110.60-21.96 108.14-23.36Q105.68-24.76 102.60-24.76L102.60-24.76Q99.52-24.76 97.02-23.36Q94.52-21.96 93.10-19.50Q91.68-17.04 91.68-14L91.68-14Q91.68-10.96 93.10-8.50Q94.52-6.04 97.02-4.64Q99.52-3.24 102.60-3.24L102.60-3.24Z M148.64 0L144.28 0L138.24-8.60Q137.12-8.52 136.48-8.52L136.48-8.52L129.56-8.52L129.56 0L125.56 0L125.56-28L136.48-28Q141.92-28 145.04-25.40Q148.16-22.80 148.16-18.24L148.16-18.24Q148.16-15 146.56-12.72Q144.96-10.44 142-9.40L142-9.40L148.64 0ZM136.36-11.92Q140.16-11.92 142.16-13.56Q144.16-15.20 144.16-18.24L144.16-18.24Q144.16-21.28 142.16-22.90Q140.16-24.52 136.36-24.52L136.36-24.52L129.56-24.52L129.56-11.92L136.36-11.92Z M156.64 0L156.64-28L168.44-28Q172.88-28 176.32-26.24Q179.76-24.48 181.66-21.30Q183.56-18.12 183.56-14L183.56-14Q183.56-9.88 181.66-6.70Q179.76-3.52 176.32-1.76Q172.88 0 168.44 0L168.44 0L156.64 0ZM160.64-3.48L168.20-3.48Q171.60-3.48 174.18-4.80Q176.76-6.12 178.16-8.50Q179.56-10.88 179.56-14L179.56-14Q179.56-17.12 178.16-19.50Q176.76-21.88 174.18-23.20Q171.60-24.52 168.20-24.52L168.20-24.52L160.64-24.52L160.64-3.48Z M212.20 0L209.12-7L194.24-7L191.16 0L187.04 0L199.72-28L203.68-28L216.40 0L212.20 0ZM195.64-10.20L207.72-10.20L201.68-23.92L195.64-10.20Z M241.40-14.52Q243.84-13.84 245.24-12.06Q246.64-10.28 246.64-7.56L246.64-7.56Q246.64-3.92 243.90-1.96Q241.16 0 235.92 0L235.92 0L222.56 0L222.56-28L235.12-28Q239.92-28 242.54-26.08Q245.16-24.16 245.16-20.76L245.16-20.76Q245.16-18.56 244.14-16.96Q243.12-15.36 241.40-14.52L241.40-14.52ZM234.76-24.76L226.56-24.76L226.56-15.80L234.76-15.80Q237.84-15.80 239.50-16.94Q241.16-18.08 241.16-20.28L241.16-20.28Q241.16-22.48 239.50-23.62Q237.84-24.76 234.76-24.76L234.76-24.76ZM235.76-3.24Q239.16-3.24 240.88-4.36Q242.60-5.48 242.60-7.88L242.60-7.88Q242.60-12.56 235.76-12.56L235.76-12.56L226.56-12.56L226.56-3.24L235.76-3.24Z M254.84 0L254.84-28L258.84-28L258.84-3.48L274-3.48L274 0L254.84 0Z M284.60-3.48L300.92-3.48L300.92 0L280.60 0L280.60-28L300.36-28L300.36-24.52L284.60-24.52L284.60-15.92L298.64-15.92L298.64-12.52L284.60-12.52L284.60-3.48Z M326.16-3.48L342.48-3.48L342.48 0L322.16 0L322.16-28L341.92-28L341.92-24.52L326.16-24.52L326.16-15.92L340.20-15.92L340.20-12.52L326.16-12.52L326.16-3.48Z M350.96 0L350.96-28L354.96-28L354.96-3.48L370.12-3.48L370.12 0L350.96 0Z M380.72-3.48L397.04-3.48L397.04 0L376.72 0L376.72-28L396.48-28L396.48-24.52L380.72-24.52L380.72-15.92L394.76-15.92L394.76-12.52L380.72-12.52L380.72-3.48Z M424.80-5.04L424.80-14.16L428.64-14.16L428.64-3.24Q426.56-1.52 423.80-0.60Q421.04 0.32 418.04 0.32L418.04 0.32Q413.80 0.32 410.40-1.54Q407.00-3.40 405.06-6.66Q403.12-9.92 403.12-14L403.12-14Q403.12-18.08 405.06-21.36Q407.00-24.64 410.42-26.48Q413.84-28.32 418.12-28.32L418.12-28.32Q421.48-28.32 424.22-27.22Q426.96-26.12 428.88-24L428.88-24L426.40-21.52Q423.04-24.76 418.28-24.76L418.28-24.76Q415.08-24.76 412.54-23.38Q410.00-22 408.56-19.54Q407.12-17.08 407.12-14L407.12-14Q407.12-10.96 408.56-8.50Q410.00-6.04 412.54-4.64Q415.08-3.24 418.24-3.24L418.24-3.24Q422.00-3.24 424.80-5.04L424.80-5.04Z M459.20 0L456.12-7L441.24-7L438.16 0L434.04 0L446.72-28L450.68-28L463.40 0L459.20 0ZM442.64-10.20L454.72-10.20L448.68-23.92L442.64-10.20Z M489.64-28L493.64-28L493.64 0L490.36 0L473.56-20.88L473.56 0L469.56 0L469.56-28L472.84-28L489.64-7.12L489.64-28Z M516.56 0.32Q512.36 0.32 508.98-1.54Q505.60-3.40 503.68-6.66Q501.76-9.92 501.76-14L501.76-14Q501.76-18.08 503.68-21.34Q505.60-24.60 509.00-26.46Q512.40-28.32 516.60-28.32L516.60-28.32Q519.88-28.32 522.60-27.22Q525.32-26.12 527.24-23.96L527.24-23.96L524.64-21.44Q521.48-24.76 516.76-24.76L516.76-24.76Q513.64-24.76 511.12-23.36Q508.60-21.96 507.18-19.50Q505.76-17.04 505.76-14L505.76-14Q505.76-10.96 507.18-8.50Q508.60-6.04 511.12-4.64Q513.64-3.24 516.76-3.24L516.76-3.24Q521.44-3.24 524.64-6.60L524.64-6.60L527.24-4.08Q525.32-1.92 522.58-0.80Q519.84 0.32 516.56 0.32L516.56 0.32Z M538.96-3.48L555.28-3.48L555.28 0L534.96 0L534.96-28L554.72-28L554.72-24.52L538.96-24.52L538.96-15.92L553-15.92L553-12.52L538.96-12.52L538.96-3.48Z M596.28-24.52L580.52-24.52L580.52-14.76L594.56-14.76L594.56-11.32L580.52-11.32L580.52 0L576.52 0L576.52-28L596.28-28L596.28-24.52Z M616.24 0.32Q612.00 0.32 608.60-1.54Q605.20-3.40 603.26-6.68Q601.32-9.96 601.32-14L601.32-14Q601.32-18.04 603.26-21.32Q605.20-24.60 608.60-26.46Q612.00-28.32 616.24-28.32L616.24-28.32Q620.44-28.32 623.84-26.46Q627.24-24.60 629.16-21.34Q631.08-18.08 631.08-14L631.08-14Q631.08-9.92 629.16-6.66Q627.24-3.40 623.84-1.54Q620.44 0.32 616.24 0.32L616.24 0.32ZM616.24-3.24Q619.32-3.24 621.78-4.64Q624.24-6.04 625.66-8.50Q627.08-10.96 627.08-14L627.08-14Q627.08-17.04 625.66-19.50Q624.24-21.96 621.78-23.36Q619.32-24.76 616.24-24.76L616.24-24.76Q613.16-24.76 610.66-23.36Q608.16-21.96 606.74-19.50Q605.32-17.04 605.32-14L605.32-14Q605.32-10.96 606.74-8.50Q608.16-6.04 610.66-4.64Q613.16-3.24 616.24-3.24L616.24-3.24Z M662.28 0L657.92 0L651.88-8.60Q650.76-8.52 650.12-8.52L650.12-8.52L643.20-8.52L643.20 0L639.20 0L639.20-28L650.12-28Q655.56-28 658.68-25.40Q661.80-22.80 661.80-18.24L661.80-18.24Q661.80-15 660.20-12.72Q658.60-10.44 655.64-9.40L655.64-9.40L662.28 0ZM650.00-11.92Q653.80-11.92 655.80-13.56Q657.80-15.20 657.80-18.24L657.80-18.24Q657.80-21.28 655.80-22.90Q653.80-24.52 650.00-24.52L650.00-24.52L643.20-24.52L643.20-11.92L650.00-11.92Z M687.04-3.48L703.36-3.48L703.36 0L683.04 0L683.04-28L702.80-28L702.80-24.52L687.04-24.52L687.04-15.92L701.08-15.92L701.08-12.52L687.04-12.52L687.04-3.48Z M731.76-28L735.76-28L723.48 0L719.52 0L707.20-28L711.52-28L721.60-5L731.76-28Z M745.32-3.48L761.64-3.48L761.64 0L741.32 0L741.32-28L761.08-28L761.08-24.52L745.32-24.52L745.32-15.92L759.36-15.92L759.36-12.52L745.32-12.52L745.32-3.48Z M793.20 0L788.84 0L782.80-8.60Q781.68-8.52 781.04-8.52L781.04-8.52L774.12-8.52L774.12 0L770.12 0L770.12-28L781.04-28Q786.48-28 789.60-25.40Q792.72-22.80 792.72-18.24L792.72-18.24Q792.72-15 791.12-12.72Q789.52-10.44 786.56-9.40L786.56-9.40L793.20 0ZM780.92-11.92Q784.72-11.92 786.72-13.56Q788.72-15.20 788.72-18.24L788.72-18.24Q788.72-21.28 786.72-22.90Q784.72-24.52 780.92-24.52L780.92-24.52L774.12-24.52L774.12-11.92L780.92-11.92Z M822.64-28L811.52-9.68L811.52 0L807.56 0L807.56-9.76L796.44-28L800.72-28L809.68-13.24L818.68-28L822.64-28Z M849.60 0.32Q846.44 0.32 843.50-0.66Q840.56-1.64 838.88-3.20L838.88-3.20L840.36-6.32Q841.96-4.88 844.46-3.98Q846.96-3.08 849.60-3.08L849.60-3.08Q853.08-3.08 854.80-4.26Q856.52-5.44 856.52-7.40L856.52-7.40Q856.52-8.84 855.58-9.74Q854.64-10.64 853.26-11.12Q851.88-11.60 849.36-12.20L849.36-12.20Q846.20-12.96 844.26-13.72Q842.32-14.48 840.94-16.06Q839.56-17.64 839.56-20.32L839.56-20.32Q839.56-22.56 840.74-24.36Q841.92-26.16 844.32-27.24Q846.72-28.32 850.28-28.32L850.28-28.32Q852.76-28.32 855.16-27.68Q857.56-27.04 859.28-25.84L859.28-25.84L857.96-22.64Q856.20-23.76 854.20-24.34Q852.20-24.92 850.28-24.92L850.28-24.92Q846.88-24.92 845.18-23.68Q843.48-22.44 843.48-20.48L843.48-20.48Q843.48-19.04 844.44-18.14Q845.40-17.24 846.82-16.74Q848.24-16.24 850.68-15.68L850.68-15.68Q853.84-14.92 855.76-14.16Q857.68-13.40 859.06-11.84Q860.44-10.28 860.44-7.64L860.44-7.64Q860.44-5.44 859.24-3.62Q858.04-1.80 855.60-0.74Q853.16 0.32 849.60 0.32L849.60 0.32Z M873.44 0L873.44-24.52L863.84-24.52L863.84-28L887-28L887-24.52L877.40-24.52L877.40 0L873.44 0Z M914.88-28L903.76-9.68L903.76 0L899.80 0L899.80-9.76L888.68-28L892.96-28L901.92-13.24L910.92-28L914.88-28Z M920.44 0L920.44-28L924.44-28L924.44-3.48L939.60-3.48L939.60 0L920.44 0Z M950.20-3.48L966.52-3.48L966.52 0L946.20 0L946.20-28L965.96-28L965.96-24.52L950.20-24.52L950.20-15.92L964.24-15.92L964.24-12.52L950.20-12.52L950.20-3.48Z"/></g>
</svg>
</g></svg></svg>