<svg version="1.1" preserveAspectRatio="none" xmlns="http://www.w3.org/2000/svg" width="500" height="500" viewBox="0 0 500 500"><rect width="100%" height="100%" fill="#212D94" fill-opacity="1"/><svg viewBox="-19.071 141.5409 529.9482 218.2" width="333" height="137.108872150146" x="83.5px" y="181.4456px" xmlns="http://www.w3.org/2000/svg" xmlns:xlink="http://www.w3.org/1999/xlink" preserveAspectRatio="none"><defs></defs><style>.a60p5ZquTEfillColor {fill:#F1F1F1;fill-opacity:0;}.ahs7pIl34ofillColor {fill:#0A0A0A;fill-opacity:0.1;}.background {fill:#212D94;fill-opacity:1;}.companyName {fill:#F1F1F1;fill-opacity:1;}.icon3-str {stroke:#0A0A0A;stroke-opacity:1;}.shapeStroke-str {stroke:#0A0A0A;stroke-opacity:1;}.text-str {stroke:#F1F1F1;stroke-opacity:1;}</style><g opacity="1" transform="rotate(0 -19.071 141.5409)">
<svg width="264.9741" height="218.2" x="-19.071" y="141.5409" version="1.1" preserveAspectRatio="none" viewBox="0 0 264.9741 218.2">
  <defs><rect x="13.6375" y="13.6375" width="237.69910000000002" height="190.92499999999998" rx="0px" ry="0px" id="id-60p5ZquTE1721199912665"></rect></defs><use class="a60p5ZquTEfillColor text-str" style="stroke-width:27.275;" xlink:href="#id-60p5ZquTE1721199912665"></use>
</svg>
</g><g opacity="1" transform="rotate(0 245.9031 141.5409)">
<svg width="264.9741" height="218.2" x="245.9031" y="141.5409" version="1.1" preserveAspectRatio="none" viewBox="0 0 264.9741 218.2">
  <defs><rect x="13.6375" y="13.6375" width="237.69910000000002" height="190.92499999999998" rx="0px" ry="0px" id="id-hs7pIl34o1721199912665"></rect></defs><use class="ahs7pIl34ofillColor icon3-str" style="stroke-width:27.275;" xlink:href="#id-hs7pIl34o1721199912665"></use>
</svg>
</g><g opacity="1" transform="rotate(0 -9.071 151.5409)">
<svg width="509.9482" height="198.2" x="-9.071" y="151.5409" version="1.1" preserveAspectRatio="none" viewBox="0 0 509.9482 198.2">
  <defs><rect x="0" y="0" width="509.9482" height="198.2" rx="0px" ry="0px" id="id-BO9lbzKc31721199912665"></rect></defs><use class="background shapeStroke-str" style="stroke-width:0;" xlink:href="#id-BO9lbzKc31721199912665"></use>
</svg>
</g><g opacity="1" transform="rotate(0 30.929 283.5409)">
<svg width="429.9482" height="16.2" x="30.929" y="283.5409" version="1.1" preserveAspectRatio="none" viewBox="-0.36 -30 1010.5999999999999 38.08">
  <g transform="matrix(1 0 0 1 0 0)" class="companyName"><path id="id-6izo4zJp35" d="M24.24 0L21.76-6L8.76-6L6.28 0L-0.36 0L12.12-28L18.52-28L31.04 0L24.24 0ZM10.84-10.92L19.72-10.92L15.28-21.64L10.84-10.92Z M48.36-21.96L48.36-21.04L53.88-21.04L53.88-16.24L48.52-16.24L48.52 0L42.28 0L42.28-16.24L38.96-16.24L38.96-21.04L42.28-21.04L42.28-22Q42.28-25.68 44.46-27.84Q46.64-30 50.60-30L50.60-30Q52-30 53.26-29.70Q54.52-29.40 55.36-28.84L55.36-28.84L53.72-24.32Q52.64-25.08 51.20-25.08L51.20-25.08Q48.36-25.08 48.36-21.96L48.36-21.96Z M71.84-21.96L71.84-21.04L77.36-21.04L77.36-16.24L72-16.24L72 0L65.76 0L65.76-16.24L62.44-16.24L62.44-21.04L65.76-21.04L65.76-22Q65.76-25.68 67.94-27.84Q70.12-30 74.08-30L74.08-30Q75.48-30 76.74-29.70Q78-29.40 78.84-28.84L78.84-28.84L77.20-24.32Q76.12-25.08 74.68-25.08L74.68-25.08Q71.84-25.08 71.84-21.96L71.84-21.96Z M98.44 0.32Q95.04 0.32 92.34-1.10Q89.64-2.52 88.12-5.04Q86.60-7.56 86.60-10.76L86.60-10.76Q86.60-13.96 88.12-16.48Q89.64-19 92.34-20.42Q95.04-21.84 98.44-21.84L98.44-21.84Q101.84-21.84 104.52-20.42Q107.20-19 108.72-16.48Q110.24-13.96 110.24-10.76L110.24-10.76Q110.24-7.56 108.72-5.04Q107.20-2.52 104.52-1.10Q101.84 0.32 98.44 0.32L98.44 0.32ZM98.44-4.80Q100.84-4.80 102.38-6.42Q103.92-8.04 103.92-10.76L103.92-10.76Q103.92-13.48 102.38-15.10Q100.84-16.72 98.44-16.72L98.44-16.72Q96.04-16.72 94.48-15.10Q92.92-13.48 92.92-10.76L92.92-10.76Q92.92-8.04 94.48-6.42Q96.04-4.80 98.44-4.80L98.44-4.80Z M128.36-18.68Q129.48-20.24 131.38-21.04Q133.28-21.84 135.76-21.84L135.76-21.84L135.76-16.08Q134.72-16.16 134.36-16.16L134.36-16.16Q131.68-16.16 130.16-14.66Q128.64-13.16 128.64-10.16L128.64-10.16L128.64 0L122.40 0L122.40-21.52L128.36-21.52L128.36-18.68Z M162.96-29.68L169.20-29.68L169.20 0L163.24 0L163.24-2.48Q160.92 0.32 156.52 0.32L156.52 0.32Q153.48 0.32 151.02-1.04Q148.56-2.40 147.16-4.92Q145.76-7.44 145.76-10.76L145.76-10.76Q145.76-14.08 147.16-16.60Q148.56-19.12 151.02-20.48Q153.48-21.84 156.52-21.84L156.52-21.84Q160.64-21.84 162.96-19.24L162.96-19.24L162.96-29.68ZM157.60-4.80Q159.96-4.80 161.52-6.42Q163.08-8.04 163.08-10.76L163.08-10.76Q163.08-13.48 161.52-15.10Q159.96-16.72 157.60-16.72L157.60-16.72Q155.20-16.72 153.64-15.10Q152.08-13.48 152.08-10.76L152.08-10.76Q152.08-8.04 153.64-6.42Q155.20-4.80 157.60-4.80L157.60-4.80Z M191.64-21.84Q196.64-21.84 199.32-19.46Q202-17.08 202-12.28L202-12.28L202 0L196.16 0L196.16-2.68Q194.40 0.32 189.60 0.32L189.60 0.32Q187.12 0.32 185.30-0.52Q183.48-1.36 182.52-2.84Q181.56-4.32 181.56-6.20L181.56-6.20Q181.56-9.20 183.82-10.92Q186.08-12.64 190.80-12.64L190.80-12.64L195.76-12.64Q195.76-14.68 194.52-15.78Q193.28-16.88 190.80-16.88L190.80-16.88Q189.08-16.88 187.42-16.34Q185.76-15.80 184.60-14.88L184.60-14.88L182.36-19.24Q184.12-20.48 186.58-21.16Q189.04-21.84 191.64-21.84L191.64-21.84ZM191.16-3.88Q192.76-3.88 194-4.62Q195.24-5.36 195.76-6.80L195.76-6.80L195.76-9L191.48-9Q187.64-9 187.64-6.48L187.64-6.48Q187.64-5.28 188.58-4.58Q189.52-3.88 191.16-3.88L191.16-3.88Z M228.36-21.84Q231.36-21.84 233.82-20.46Q236.28-19.08 237.68-16.58Q239.08-14.08 239.08-10.76L239.08-10.76Q239.08-7.44 237.68-4.94Q236.28-2.44 233.82-1.06Q231.36 0.32 228.36 0.32L228.36 0.32Q223.92 0.32 221.60-2.48L221.60-2.48L221.60 0L215.64 0L215.64-29.68L221.88-29.68L221.88-19.24Q224.24-21.84 228.36-21.84L228.36-21.84ZM227.28-4.80Q229.68-4.80 231.22-6.42Q232.76-8.04 232.76-10.76L232.76-10.76Q232.76-13.48 231.22-15.10Q229.68-16.72 227.28-16.72L227.28-16.72Q224.88-16.72 223.34-15.10Q221.80-13.48 221.80-10.76L221.80-10.76Q221.80-8.04 223.34-6.42Q224.88-4.80 227.28-4.80L227.28-4.80Z M251.24 0L251.24-29.68L257.48-29.68L257.48 0L251.24 0Z M292.36-10.68Q292.36-10.56 292.24-9L292.24-9L275.96-9Q276.40-7 278.04-5.84Q279.68-4.68 282.12-4.68L282.12-4.68Q283.80-4.68 285.10-5.18Q286.40-5.68 287.52-6.76L287.52-6.76L290.84-3.16Q287.80 0.32 281.96 0.32L281.96 0.32Q278.32 0.32 275.52-1.10Q272.72-2.52 271.20-5.04Q269.68-7.56 269.68-10.76L269.68-10.76Q269.68-13.92 271.18-16.46Q272.68-19 275.30-20.42Q277.92-21.84 281.16-21.84L281.16-21.84Q284.32-21.84 286.88-20.48Q289.44-19.12 290.90-16.58Q292.36-14.04 292.36-10.68L292.36-10.68ZM281.20-17.12Q279.08-17.12 277.64-15.92Q276.20-14.72 275.88-12.64L275.88-12.64L286.48-12.64Q286.16-14.68 284.72-15.90Q283.28-17.12 281.20-17.12L281.20-17.12Z M330.72-5.20L345.96-5.20L345.96 0L324.28 0L324.28-28L345.44-28L345.44-22.80L330.72-22.80L330.72-16.72L343.72-16.72L343.72-11.68L330.72-11.68L330.72-5.20Z M358.68 0L358.68-29.68L364.92-29.68L364.92 0L358.68 0Z M399.80-10.68Q399.80-10.56 399.68-9L399.68-9L383.40-9Q383.84-7 385.48-5.84Q387.12-4.68 389.56-4.68L389.56-4.68Q391.24-4.68 392.54-5.18Q393.84-5.68 394.96-6.76L394.96-6.76L398.28-3.16Q395.24 0.32 389.40 0.32L389.40 0.32Q385.76 0.32 382.96-1.10Q380.16-2.52 378.64-5.04Q377.12-7.56 377.12-10.76L377.12-10.76Q377.12-13.92 378.62-16.46Q380.12-19 382.74-20.42Q385.36-21.84 388.60-21.84L388.60-21.84Q391.76-21.84 394.32-20.48Q396.88-19.12 398.34-16.58Q399.80-14.04 399.80-10.68L399.80-10.68ZM388.64-17.12Q386.52-17.12 385.08-15.92Q383.64-14.72 383.32-12.64L383.32-12.64L393.92-12.64Q393.60-14.68 392.16-15.90Q390.72-17.12 388.64-17.12L388.64-17.12Z M428.24-21.52L434.16-21.52L434.16-3.60Q434.16 2.32 431.08 5.20Q428.00 8.08 422.08 8.08L422.08 8.08Q418.96 8.08 416.16 7.32Q413.36 6.56 411.52 5.12L411.52 5.12L414.00 0.64Q415.36 1.76 417.44 2.42Q419.52 3.08 421.60 3.08L421.60 3.08Q424.84 3.08 426.38 1.62Q427.92 0.16 427.92-2.80L427.92-2.80L427.92-3.72Q425.48-1.04 421.12-1.04L421.12-1.04Q418.16-1.04 415.70-2.34Q413.24-3.64 411.80-6Q410.36-8.36 410.36-11.44L410.36-11.44Q410.36-14.52 411.80-16.88Q413.24-19.24 415.70-20.54Q418.16-21.84 421.12-21.84L421.12-21.84Q425.80-21.84 428.24-18.76L428.24-18.76L428.24-21.52ZM422.36-6.16Q424.84-6.16 426.42-7.62Q428.00-9.08 428.00-11.44L428.00-11.44Q428.00-13.80 426.42-15.26Q424.84-16.72 422.36-16.72L422.36-16.72Q419.88-16.72 418.28-15.26Q416.68-13.80 416.68-11.44L416.68-11.44Q416.68-9.08 418.28-7.62Q419.88-6.16 422.36-6.16L422.36-6.16Z M456.64-21.84Q461.64-21.84 464.32-19.46Q467.00-17.08 467.00-12.28L467.00-12.28L467.00 0L461.16 0L461.16-2.68Q459.40 0.32 454.60 0.32L454.60 0.32Q452.12 0.32 450.30-0.52Q448.48-1.36 447.52-2.84Q446.56-4.32 446.56-6.20L446.56-6.20Q446.56-9.20 448.82-10.92Q451.08-12.64 455.80-12.64L455.80-12.64L460.76-12.64Q460.76-14.68 459.52-15.78Q458.28-16.88 455.80-16.88L455.80-16.88Q454.08-16.88 452.42-16.34Q450.76-15.80 449.60-14.88L449.60-14.88L447.36-19.24Q449.12-20.48 451.58-21.16Q454.04-21.84 456.64-21.84L456.64-21.84ZM456.16-3.88Q457.76-3.88 459.00-4.62Q460.24-5.36 460.76-6.80L460.76-6.80L460.76-9L456.48-9Q452.64-9 452.64-6.48L452.64-6.48Q452.64-5.28 453.58-4.58Q454.52-3.88 456.16-3.88L456.16-3.88Z M493.72-21.84Q497.72-21.84 500.18-19.44Q502.64-17.04 502.64-12.32L502.64-12.32L502.64 0L496.40 0L496.40-11.36Q496.40-13.92 495.28-15.18Q494.16-16.44 492.04-16.44L492.04-16.44Q489.68-16.44 488.28-14.98Q486.88-13.52 486.88-10.64L486.88-10.64L486.88 0L480.64 0L480.64-21.52L486.60-21.52L486.60-19Q487.84-20.36 489.68-21.10Q491.52-21.84 493.72-21.84L493.72-21.84Z M526.92 0.32Q523.48 0.32 520.74-1.10Q518.00-2.52 516.46-5.04Q514.92-7.56 514.92-10.76L514.92-10.76Q514.92-13.96 516.46-16.48Q518.00-19 520.74-20.42Q523.48-21.84 526.92-21.84L526.92-21.84Q530.32-21.84 532.86-20.42Q535.40-19 536.56-16.36L536.56-16.36L531.72-13.76Q530.04-16.72 526.88-16.72L526.88-16.72Q524.44-16.72 522.84-15.12Q521.24-13.52 521.24-10.76L521.24-10.76Q521.24-8 522.84-6.40Q524.44-4.80 526.88-4.80L526.88-4.80Q530.08-4.80 531.72-7.76L531.72-7.76L536.56-5.12Q535.40-2.56 532.86-1.12Q530.32 0.32 526.92 0.32L526.92 0.32Z M568.96-10.68Q568.96-10.56 568.84-9L568.84-9L552.56-9Q553.00-7 554.64-5.84Q556.28-4.68 558.72-4.68L558.72-4.68Q560.40-4.68 561.70-5.18Q563.00-5.68 564.12-6.76L564.12-6.76L567.44-3.16Q564.40 0.32 558.56 0.32L558.56 0.32Q554.92 0.32 552.12-1.10Q549.32-2.52 547.80-5.04Q546.28-7.56 546.28-10.76L546.28-10.76Q546.28-13.92 547.78-16.46Q549.28-19 551.90-20.42Q554.52-21.84 557.76-21.84L557.76-21.84Q560.92-21.84 563.48-20.48Q566.04-19.12 567.50-16.58Q568.96-14.04 568.96-10.68L568.96-10.68ZM557.80-17.12Q555.68-17.12 554.24-15.92Q552.80-14.72 552.48-12.64L552.48-12.64L563.08-12.64Q562.76-14.68 561.32-15.90Q559.88-17.12 557.80-17.12L557.80-17.12Z M607.28-21.96L607.28-21.04L612.80-21.04L612.80-16.24L607.44-16.24L607.44 0L601.20 0L601.20-16.24L597.88-16.24L597.88-21.04L601.20-21.04L601.20-22Q601.20-25.68 603.38-27.84Q605.56-30 609.52-30L609.52-30Q610.92-30 612.18-29.70Q613.44-29.40 614.28-28.84L614.28-28.84L612.64-24.32Q611.56-25.08 610.12-25.08L610.12-25.08Q607.28-25.08 607.28-21.96L607.28-21.96Z M633.88 0.32Q630.48 0.32 627.78-1.10Q625.08-2.52 623.56-5.04Q622.04-7.56 622.04-10.76L622.04-10.76Q622.04-13.96 623.56-16.48Q625.08-19 627.78-20.42Q630.48-21.84 633.88-21.84L633.88-21.84Q637.28-21.84 639.96-20.42Q642.64-19 644.16-16.48Q645.68-13.96 645.68-10.76L645.68-10.76Q645.68-7.56 644.16-5.04Q642.64-2.52 639.96-1.10Q637.28 0.32 633.88 0.32L633.88 0.32ZM633.88-4.80Q636.28-4.80 637.82-6.42Q639.36-8.04 639.36-10.76L639.36-10.76Q639.36-13.48 637.82-15.10Q636.28-16.72 633.88-16.72L633.88-16.72Q631.48-16.72 629.92-15.10Q628.36-13.48 628.36-10.76L628.36-10.76Q628.36-8.04 629.92-6.42Q631.48-4.80 633.88-4.80L633.88-4.80Z M663.80-18.68Q664.92-20.24 666.82-21.04Q668.72-21.84 671.20-21.84L671.20-21.84L671.20-16.08Q670.16-16.16 669.80-16.16L669.80-16.16Q667.12-16.16 665.60-14.66Q664.08-13.16 664.08-10.16L664.08-10.16L664.08 0L657.84 0L657.84-21.52L663.80-21.52L663.80-18.68Z M709.28-5.20L724.52-5.20L724.52 0L702.84 0L702.84-28L724.00-28L724.00-22.80L709.28-22.80L709.28-16.72L722.28-16.72L722.28-11.68L709.28-11.68L709.28-5.20Z M752.40-21.52L758.40-21.52L749.32 0L742.88 0L733.84-21.52L740.28-21.52L746.24-6.88L752.40-21.52Z M789.44-10.68Q789.44-10.56 789.32-9L789.32-9L773.04-9Q773.48-7 775.12-5.84Q776.76-4.68 779.20-4.68L779.20-4.68Q780.88-4.68 782.18-5.18Q783.48-5.68 784.60-6.76L784.60-6.76L787.92-3.16Q784.88 0.32 779.04 0.32L779.04 0.32Q775.40 0.32 772.60-1.10Q769.80-2.52 768.28-5.04Q766.76-7.56 766.76-10.76L766.76-10.76Q766.76-13.92 768.26-16.46Q769.76-19 772.38-20.42Q775.00-21.84 778.24-21.84L778.24-21.84Q781.40-21.84 783.96-20.48Q786.52-19.12 787.98-16.58Q789.44-14.04 789.44-10.68L789.44-10.68ZM778.28-17.12Q776.16-17.12 774.72-15.92Q773.28-14.72 772.96-12.64L772.96-12.64L783.56-12.64Q783.24-14.68 781.80-15.90Q780.36-17.12 778.28-17.12L778.28-17.12Z M807.56-18.68Q808.68-20.24 810.58-21.04Q812.48-21.84 814.96-21.84L814.96-21.84L814.96-16.08Q813.92-16.16 813.56-16.16L813.56-16.16Q810.88-16.16 809.36-14.66Q807.84-13.16 807.84-10.16L807.84-10.16L807.84 0L801.60 0L801.60-21.52L807.56-21.52L807.56-18.68Z M842.80-21.52L848.80-21.52L839.08 1.32Q837.60 5.04 835.42 6.56Q833.24 8.08 830.16 8.08L830.16 8.08Q828.48 8.08 826.84 7.56Q825.20 7.04 824.16 6.12L824.16 6.12L826.44 1.68Q827.16 2.32 828.10 2.68Q829.04 3.04 829.96 3.04L829.96 3.04Q831.24 3.04 832.04 2.42Q832.84 1.80 833.48 0.36L833.48 0.36L833.56 0.16L824.24-21.52L830.68-21.52L836.72-6.92L842.80-21.52Z M888.32 0.48Q885.00 0.48 881.90-0.42Q878.80-1.32 876.92-2.76L876.92-2.76L879.12-7.64Q880.92-6.32 883.40-5.52Q885.88-4.72 888.36-4.72L888.36-4.72Q891.12-4.72 892.44-5.54Q893.76-6.36 893.76-7.72L893.76-7.72Q893.76-8.72 892.98-9.38Q892.20-10.04 890.98-10.44Q889.76-10.84 887.68-11.32L887.68-11.32Q884.48-12.08 882.44-12.84Q880.40-13.60 878.94-15.28Q877.48-16.96 877.48-19.76L877.48-19.76Q877.48-22.20 878.80-24.18Q880.12-26.16 882.78-27.32Q885.44-28.48 889.28-28.48L889.28-28.48Q891.96-28.48 894.52-27.84Q897.08-27.20 899.00-26L899.00-26L897.00-21.08Q893.12-23.28 889.24-23.28L889.24-23.28Q886.52-23.28 885.22-22.40Q883.92-21.52 883.92-20.08L883.92-20.08Q883.92-18.64 885.42-17.94Q886.92-17.24 890.00-16.56L890.00-16.56Q893.20-15.80 895.24-15.04Q897.28-14.28 898.74-12.64Q900.20-11 900.20-8.20L900.20-8.20Q900.20-5.80 898.86-3.82Q897.52-1.84 894.84-0.68Q892.16 0.48 888.32 0.48L888.32 0.48Z M924.40-5.44L926.08-1.04Q925.16-0.36 923.82-0.02Q922.48 0.32 921.00 0.32L921.00 0.32Q917.16 0.32 915.06-1.64Q912.96-3.60 912.96-7.40L912.96-7.40L912.96-16.24L909.64-16.24L909.64-21.04L912.96-21.04L912.96-26.28L919.20-26.28L919.20-21.04L924.56-21.04L924.56-16.24L919.20-16.24L919.20-7.48Q919.20-6.12 919.90-5.38Q920.60-4.64 921.88-4.64L921.88-4.64Q923.36-4.64 924.40-5.44L924.40-5.44Z M952.56-21.52L958.56-21.52L948.84 1.32Q947.36 5.04 945.18 6.56Q943.00 8.08 939.92 8.08L939.92 8.08Q938.24 8.08 936.60 7.56Q934.96 7.04 933.92 6.12L933.92 6.12L936.20 1.68Q936.92 2.32 937.86 2.68Q938.80 3.04 939.72 3.04L939.72 3.04Q941.00 3.04 941.80 2.42Q942.60 1.80 943.24 0.36L943.24 0.36L943.32 0.16L934.00-21.52L940.44-21.52L946.48-6.92L952.56-21.52Z M969.12 0L969.12-29.68L975.36-29.68L975.36 0L969.12 0Z M1010.24-10.68Q1010.24-10.56 1010.12-9L1010.12-9L993.84-9Q994.28-7 995.92-5.84Q997.56-4.68 1000.00-4.68L1000.00-4.68Q1001.68-4.68 1002.98-5.18Q1004.28-5.68 1005.40-6.76L1005.40-6.76L1008.72-3.16Q1005.68 0.32 999.84 0.32L999.84 0.32Q996.20 0.32 993.40-1.10Q990.60-2.52 989.08-5.04Q987.56-7.56 987.56-10.76L987.56-10.76Q987.56-13.92 989.06-16.46Q990.56-19 993.18-20.42Q995.80-21.84 999.04-21.84L999.04-21.84Q1002.20-21.84 1004.76-20.48Q1007.32-19.12 1008.78-16.58Q1010.24-14.04 1010.24-10.68L1010.24-10.68ZM999.08-17.12Q996.96-17.12 995.52-15.92Q994.08-14.72 993.76-12.64L993.76-12.64L1004.36-12.64Q1004.04-14.68 1002.60-15.90Q1001.16-17.12 999.08-17.12L999.08-17.12Z"/></g>
</svg>
</g><g opacity="1" transform="rotate(0 62.9961 201.5409)">
<svg width="365.814" height="60" x="62.9961" y="201.5409" version="1.1" preserveAspectRatio="none" viewBox="2.2 -31.2 241.68000000000004 39.64">
  <g transform="matrix(1 0 0 1 0 0)" class="companyName"><path id="id-D6z1nYkh11" d="M25.60-2.28Q24.32-1.36 22.06-0.52Q19.80 0.32 17.12 0.32L17.12 0.32Q12.60 0.32 9.22-1.66Q5.84-3.64 4.02-6.98Q2.20-10.32 2.20-14.32L2.20-14.32Q2.20-18.68 4.02-22.12Q5.84-25.56 9.10-27.50Q12.36-29.44 16.52-29.44L16.52-29.44Q19.08-29.44 21.26-28.76Q23.44-28.08 25.12-27.04L25.12-27.04L23.28-22.68Q20.04-24.96 16.68-24.96L16.68-24.96Q14.12-24.96 11.90-23.58Q9.68-22.20 8.36-19.82Q7.04-17.44 7.04-14.60L7.04-14.60Q7.04-11.60 8.26-9.22Q9.48-6.84 11.74-5.50Q14-4.16 16.96-4.16L16.96-4.16Q19.08-4.16 20.78-4.80Q22.48-5.44 23.64-6.44L23.64-6.44L25.60-2.28Z M43.92-17.64Q46.28-17.64 47.86-16.22Q49.44-14.80 49.48-12.56L49.48-12.56L49.48 0L45 0L45-10.96Q44.92-12.28 44.22-13.04Q43.52-13.80 42.12-13.84L42.12-13.84Q40.04-13.84 38.70-12.04Q37.36-10.24 37.36-7.52L37.36-7.52L37.36 0L32.88 0L32.88-31.20L37.28-31.20L37.28-14.04Q38.24-15.68 39.94-16.66Q41.64-17.64 43.92-17.64L43.92-17.64Z M57.64-16.92L62.12-16.92L62.12 0L57.64 0L57.64-16.92ZM57.44-22.96Q57.44-23.96 58.24-24.66Q59.04-25.36 60.04-25.36L60.04-25.36Q61-25.36 61.78-24.66Q62.56-23.96 62.56-22.96L62.56-22.96Q62.56-21.96 61.78-21.28Q61-20.60 60.04-20.60L60.04-20.60Q59.04-20.60 58.24-21.28Q57.44-21.96 57.44-22.96L57.44-22.96Z M84.28-1.56Q83.16-0.64 81.54-0.10Q79.92 0.44 78.28 0.44L78.28 0.44Q75.48 0.44 73.34-0.64Q71.20-1.72 70.04-3.74Q68.88-5.76 68.88-8.48L68.88-8.48Q68.88-11.16 70.12-13.18Q71.36-15.20 73.42-16.28Q75.48-17.36 77.84-17.36L77.84-17.36Q81.84-17.36 84.44-15.20L84.44-15.20L82.20-12.28Q81.44-12.88 80.42-13.30Q79.40-13.72 78.24-13.72L78.24-13.72Q76.20-13.72 74.78-12.22Q73.36-10.72 73.36-8.48L73.36-8.48Q73.36-6.24 74.86-4.74Q76.36-3.24 78.68-3.24L78.68-3.24Q80.68-3.24 82.04-4.36L82.04-4.36L84.28-1.56Z M120.40-15.20Q122.84-14.20 124.22-12.44Q125.60-10.68 125.60-8.36L125.60-8.36Q125.60-4.12 122.74-2.06Q119.88 0 115.68 0L115.68 0L106.60 0L106.60-29.12L114.56-29.12Q119.12-29.12 121.64-27.26Q124.16-25.40 124.16-21.80L124.16-21.80Q124.16-19.52 123.18-17.86Q122.20-16.20 120.40-15.20L120.40-15.20ZM111.28-24.64L111.28-16.72L115.32-16.72Q117.32-16.72 118.34-17.88Q119.36-19.04 119.36-20.80L119.36-20.80Q119.36-22.72 118.14-23.68Q116.92-24.64 114.76-24.64L114.76-24.64L111.28-24.64ZM115.48-4.32Q117.84-4.32 119.32-5.34Q120.80-6.36 120.80-8.32L120.80-8.32Q120.80-10.40 119.18-11.32Q117.56-12.24 115.16-12.24L115.16-12.24L111.28-12.24L111.28-4.32L115.48-4.32Z M144.68-16.92L149.16-16.92L149.16 0L145.12 0L144.84-3.04Q143.96-1.32 142.24-0.30Q140.52 0.72 138.32 0.72L138.32 0.72Q136 0.72 134.46-0.70Q132.92-2.12 132.88-4.36L132.88-4.36L132.88-16.92L137.36-16.92L137.36-5.96Q137.48-3.16 140.12-3.12L140.12-3.12Q142.08-3.12 143.38-4.92Q144.68-6.72 144.68-9.44L144.68-9.44L144.68-16.92Z M170.96-31.20L175.40-31.20L175.40 0L170.92 0L170.92-2.28Q168.12 0.44 164.28 0.44L164.28 0.44Q161.92 0.44 160.02-0.68Q158.12-1.80 157.04-3.88Q155.96-5.96 155.96-8.72L155.96-8.72Q155.96-11.48 157.10-13.52Q158.24-15.56 160.26-16.62Q162.28-17.68 164.84-17.68L164.84-17.68Q166.68-17.68 168.32-16.98Q169.96-16.28 170.96-15.08L170.96-15.08L170.96-31.20ZM165.72-3.36Q167.64-3.36 169-4.32Q170.36-5.28 170.92-7L170.92-7L170.92-10.60Q170.44-12.16 169.02-13.16Q167.60-14.16 165.72-14.16L165.72-14.16Q164.32-14.16 163.12-13.46Q161.92-12.76 161.20-11.54Q160.48-10.32 160.48-8.80L160.48-8.80Q160.48-7.28 161.20-6.04Q161.92-4.80 163.12-4.08Q164.32-3.36 165.72-3.36L165.72-3.36Z M197.76-16.92L201.88-16.92L201.88 0.08Q201.88 2.44 200.62 4.34Q199.36 6.24 197.10 7.34Q194.84 8.44 192 8.44L192 8.44Q189.24 8.44 187.40 7.58Q185.56 6.72 183.68 5.08L183.68 5.08L186.32 2Q187.60 3.20 188.92 3.86Q190.24 4.52 191.92 4.52L191.92 4.52Q194.40 4.52 195.88 3.30Q197.36 2.08 197.40 0L197.40 0L197.40-2.84Q196.52-1.36 194.78-0.46Q193.04 0.44 190.72 0.44L190.72 0.44Q188.40 0.44 186.44-0.74Q184.48-1.92 183.32-3.98Q182.16-6.04 182.16-8.56L182.16-8.56Q182.16-11.12 183.38-13.22Q184.60-15.32 186.62-16.50Q188.64-17.68 190.92-17.68L190.92-17.68Q193.04-17.68 194.78-16.94Q196.52-16.20 197.40-15L197.40-15L197.76-16.92ZM192.04-3.24Q194-3.24 195.42-4.20Q196.84-5.16 197.40-6.80L197.40-6.80L197.40-10.48Q196.84-12.08 195.40-13.04Q193.96-14 192.04-14L192.04-14Q189.76-14 188.22-12.50Q186.68-11 186.68-8.68L186.68-8.68Q186.68-7.16 187.40-5.92Q188.12-4.68 189.34-3.96Q190.56-3.24 192.04-3.24L192.04-3.24Z M218.20-3.40Q220.08-3.40 222.00-4.72L222.00-4.72L224.04-1.40Q222.68-0.56 221.12-0.06Q219.56 0.44 218.12 0.44L218.12 0.44Q215.20 0.44 213.06-0.72Q210.92-1.88 209.78-3.92Q208.64-5.96 208.64-8.60L208.64-8.60Q208.64-11.08 209.92-13.16Q211.20-15.24 213.40-16.46Q215.60-17.68 218.20-17.68L218.20-17.68Q221.64-17.68 223.92-15.66Q226.20-13.64 226.96-9.96L226.96-9.96L213.92-5.56Q214.60-4.52 215.72-3.96Q216.84-3.40 218.20-3.40L218.20-3.40ZM217.84-14.16Q215.72-14.16 214.38-12.68Q213.04-11.20 213.04-8.84L213.04-8.84Q213.04-8.40 213.08-8.16L213.08-8.16L221.96-11.32Q221.44-12.56 220.44-13.36Q219.44-14.16 217.84-14.16L217.84-14.16Z M235.00-24.36L239.48-24.36L239.48-16.92L243.88-16.92L243.88-13.40L239.48-13.40L239.48 0L235.00 0L235.00-13.40L232.08-13.40L232.08-16.92L235.00-16.92L235.00-24.36Z"/></g>
</svg>
</g></svg></svg>